<?xml version="1.0" encoding="UTF-8" standalone="no"?>
<svg
   xmlns:dc="http://purl.org/dc/elements/1.1/"
   xmlns:cc="http://creativecommons.org/ns#"
   xmlns:rdf="http://www.w3.org/1999/02/22-rdf-syntax-ns#"
   xmlns:svg="http://www.w3.org/2000/svg"
   xmlns="http://www.w3.org/2000/svg"
   xmlns:sodipodi="http://sodipodi.sourceforge.net/DTD/sodipodi-0.dtd"
   xmlns:inkscape="http://www.inkscape.org/namespaces/inkscape"
   sodipodi:docname="shapeable.svg"
   inkscape:version="1.0 (4035a4fb49, 2020-05-01)"
   id="svg8"
   version="1.1"
   viewBox="0 0 210 297"
   height="297mm"
   width="210mm">
  <defs
     id="defs2">
    <pattern
       id="EMFhbasepattern"
       patternUnits="userSpaceOnUse"
       width="6"
       height="6"
       x="0"
       y="0" />
    <clipPath
       clipPathUnits="userSpaceOnUse"
       id="clipEmfPath1">
      <path
         d="M 0,0 L 46.014488,0 L 46.014488,43.013543 L 0,43.013543 z"
         id="path98" />
    </clipPath>
    <pattern
       id="EMFhbasepattern-7"
       patternUnits="userSpaceOnUse"
       width="6"
       height="6"
       x="0"
       y="0" />
  </defs>
  <sodipodi:namedview
     inkscape:window-maximized="1"
     inkscape:window-y="-8"
     inkscape:window-x="-8"
     inkscape:window-height="1057"
     inkscape:window-width="1858"
     showgrid="false"
     inkscape:document-rotation="0"
     inkscape:current-layer="layer1"
     inkscape:document-units="mm"
     inkscape:cy="358.62757"
     inkscape:cx="435.26607"
     inkscape:zoom="1.5650331"
     inkscape:pageshadow="2"
     inkscape:pageopacity="0.0"
     borderopacity="1.0"
     bordercolor="#666666"
     pagecolor="#ffffff"
     id="base" />
  <metadata
     id="metadata5">
    <rdf:RDF>
      <cc:Work
         rdf:about="">
        <dc:format>image/svg+xml</dc:format>
        <dc:type
           rdf:resource="http://purl.org/dc/dcmitype/StillImage" />
        <dc:title></dc:title>
      </cc:Work>
    </rdf:RDF>
  </metadata>
  <g
     id="layer1"
     inkscape:groupmode="layer"
     inkscape:label="图层 1">
    <path
       style="fill:none;fill-opacity:1;fill-rule:nonzero;stroke:#000000;stroke-width:0.264583"
       d="m 32.38291,22.864803 2.490667,-1.459375 v 0.272417 L 32.38291,20.237928 v 0 l -0.03892,-0.03892 -0.03892,-0.05837 v -0.03892 -0.05837 l 0.03892,-0.03892 0.03892,-0.03892 0.03892,-0.01946 h 0.05838 l 0.05837,0.01946 v 0 l 2.724166,1.576125 -2.724166,1.595583 v 0 l -0.05837,0.01946 h -0.05838 l -0.03892,-0.01946 -0.03892,-0.03892 -0.03892,-0.03892 v -0.05837 -0.05837 l 0.03892,-0.03892 z M 17.283244,21.38597 H 34.95141 v 0 0.311333 0 H 17.283244 v 0 z"
       id="path13" />
    <path
       style="fill:none;fill-opacity:1;fill-rule:nonzero;stroke:#000000;stroke-width:0.264583"
       d="m 51.961501,19.272745 -2.490667,1.459375 v -0.272417 l 2.490667,1.459375 v 0 l 0.03892,0.03892 0.01946,0.03892 0.01946,0.05837 -0.01946,0.03892 -0.01946,0.05837 -0.03892,0.03892 -0.05837,0.01946 h -0.05838 l -0.03892,-0.01946 v 0 l -2.724166,-1.595585 2.724166,-1.595583 v 0 l 0.03892,-0.01946 h 0.05838 l 0.05837,0.01946 0.03892,0.03892 0.01946,0.05837 0.01946,0.03892 -0.01946,0.05837 -0.01946,0.03892 z m 11.733375,2.646333 2.490666,-1.459375 v 0.272417 l -2.490666,-1.459375 v 0 l -0.03892,-0.03892 -0.01946,-0.03892 -0.01946,-0.05837 0.01946,-0.03892 0.01946,-0.05838 0.03892,-0.03892 0.05838,-0.01946 h 0.05837 l 0.03892,0.01946 v 0 l 2.724167,1.595583 -2.724167,1.595583 v 0 l -0.03892,0.01946 h -0.05837 l -0.05838,-0.01946 -0.03892,-0.03892 -0.01946,-0.05837 -0.01946,-0.03892 0.01946,-0.05837 0.01946,-0.03892 z M 49.393001,20.440245 h 16.870375 v 0 0.311333 0 H 49.393001 v 0 z"
       id="path15" />
    <path
       style="fill:#b3b3b3;fill-opacity:1;fill-rule:evenodd;stroke:#000000;stroke-width:0.450141"
       d="M 28.357032,57.066273 V 73.486275 H 45.306718 V 57.066273 Z"
       id="path17" />
    <path
       style="fill:none;stroke:#000000;stroke-width:0.408625px;stroke-linecap:butt;stroke-linejoin:miter;stroke-miterlimit:8;stroke-dasharray:none;stroke-opacity:1"
       d="m 45.997046,78.723075 c 0,-0.97291 0.797792,-1.77071 1.770707,-1.77071 h 7.02446 c 0.972915,0 1.751248,0.7978 1.751248,1.77071 v 7.02446 c 0,0.97292 -0.778333,1.75125 -1.751248,1.75125 h -7.02446 c -0.972915,0 -1.770707,-0.77833 -1.770707,-1.75125 z"
       id="path23" />
    <path
       style="fill:none;stroke:#000000;stroke-width:0.408625px;stroke-linecap:butt;stroke-linejoin:miter;stroke-miterlimit:8;stroke-dasharray:none;stroke-opacity:1"
       d="m 15.391861,76.994815 h 8.775708 l 1.770709,1.75125 v 8.79516 H 15.391861 Z"
       id="path27" />
    <path
       style="fill:#ffd5d5;stroke:#000000;stroke-width:0.65876px;stroke-linecap:butt;stroke-linejoin:miter;stroke-miterlimit:8;stroke-dasharray:none;stroke-opacity:1"
       d="M 56.355074,54.30077 67.522628,43.101844 78.721555,54.30077 67.522628,65.499681 Z"
       id="path35" />
    <path
       style="fill:none;stroke:#000000;stroke-width:0.408625px;stroke-linecap:butt;stroke-linejoin:miter;stroke-miterlimit:8;stroke-dasharray:none;stroke-opacity:1"
       d="m 115.46144,117.89592 6.44071,-5.27321 6.46016,5.27321 -2.47121,8.54221 h -7.97791 z"
       id="path39" />
    <path
       style="fill:none;stroke:#000000;stroke-width:0.408625px;stroke-linecap:butt;stroke-linejoin:miter;stroke-miterlimit:8;stroke-dasharray:none;stroke-opacity:1"
       d="m 115.74996,136.62943 2.99658,-5.99316 h 6.94662 l 2.97713,5.99316 -2.97713,5.99317 h -6.94662 z"
       id="path43" />
    <path
       style="fill:#b3b3b3;stroke:#000000;stroke-width:0.684796px;stroke-linecap:butt;stroke-linejoin:miter;stroke-miterlimit:8;stroke-dasharray:none;stroke-opacity:1"
       d="m 77.137423,76.473758 11.40688,-19.814401 11.40687,19.814401 z"
       id="path47" />
    <path
       style="fill:#f9f9f9;stroke:#000000;stroke-width:0.424175px;stroke-linecap:butt;stroke-linejoin:miter;stroke-miterlimit:8;stroke-dasharray:none;stroke-opacity:1"
       d="m 80.032029,92.501593 2.232596,-11.103881 h 7.804991 l 2.250747,11.103881 z"
       id="path55" />
    <path
       style="fill:#b3b3b3;stroke:#000000;stroke-width:0.605945px;stroke-linecap:butt;stroke-linejoin:miter;stroke-miterlimit:8;stroke-dasharray:none;stroke-opacity:1"
       d="M 26.834041,109.85264 30.7294,94.213483 h 16.33166 l -3.924214,15.639157 z"
       id="path59" />
    <path
       style="fill:none;stroke:#000000;stroke-width:0.408625px;stroke-linecap:butt;stroke-linejoin:miter;stroke-miterlimit:8;stroke-dasharray:none;stroke-opacity:1"
       d="m 128.16437,155.05317 -6.46017,5.29266 -6.44071,-5.29266 2.45176,-8.54221 h 7.97791 z"
       id="path63" />
    <path
       style="fill:none;fill-opacity:1;fill-rule:evenodd;stroke:#000000;stroke-width:0.251101"
       d="m 30.209943,76.860719 h 8.808859 l 1.666541,1.590022 v 9.01012 h -9.046936 l -1.428464,-1.590022 z"
       id="path104" />
    <path
       id="path39-9"
       d="m 140.94948,130.14109 5.27319,6.44071 -5.27319,6.46016 -8.54222,-2.47121 v -7.97791 z"
       style="fill:none;stroke:#000000;stroke-width:0.408625px;stroke-linecap:butt;stroke-linejoin:miter;stroke-miterlimit:8;stroke-dasharray:none;stroke-opacity:1" />
    <path
       id="path63-3"
       d="m 104.63168,143.31475 -5.292654,-6.46017 5.292654,-6.44071 8.5422,2.45176 v 7.97791 z"
       style="fill:none;stroke:#000000;stroke-width:0.408625px;stroke-linecap:butt;stroke-linejoin:miter;stroke-miterlimit:8;stroke-dasharray:none;stroke-opacity:1" />
    <text
       id="text141"
       y="116.20935"
       x="20.680275"
       style="font-size:4.13062px;line-height:1.25;font-family:sans-serif;stroke-width:0.129082"
       xml:space="preserve"><tspan
         style="stroke-width:0.129082"
         y="116.20935"
         x="20.680275"
         id="tspan139"
         sodipodi:role="line">Axis.SideOffset</tspan><tspan
         id="tspan180"
         style="stroke-width:0.129082"
         y="121.37263"
         x="20.680275"
         sodipodi:role="line">Renliy.VisionBiasiz</tspan></text>
    <text
       xml:space="preserve"
       style="font-size:4.13062px;line-height:1.25;font-family:sans-serif;stroke-width:0.129082"
       x="80.991219"
       y="23.187559"
       id="text141-1"><tspan
         sodipodi:role="line"
         id="tspan139-3"
         x="80.991219"
         y="23.187559"
         style="stroke-width:0.129082">Axis.Center.Aute(Side)Inside</tspan><tspan
         id="tspan163"
         sodipodi:role="line"
         x="80.991219"
         y="28.350834"
         style="stroke-width:0.129082">Tsc.Pushed.Caeilful.Rotate</tspan><tspan
         id="tspan161"
         sodipodi:role="line"
         x="80.991219"
         y="33.514111"
         style="stroke-width:0.129082">Tricylce.Color</tspan></text>
    <path
       id="path59-7"
       d="m 27.176039,124.79578 15.63915,3.89535 v 16.33166 l -15.63915,-3.92421 z"
       style="fill:#ff5555;stroke:#000000;stroke-width:0.605946px;stroke-linecap:butt;stroke-linejoin:miter;stroke-miterlimit:8;stroke-dasharray:none;stroke-opacity:1" />
    <path
       id="path201"
       d="M 120.6922,67.67786 V 56.525467 L 109.53981,67.67786 Z"
       style="fill:none;stroke:#000000;stroke-width:0.365938px;stroke-linecap:butt;stroke-linejoin:miter;stroke-miterlimit:8;stroke-dasharray:none;stroke-opacity:1" />
    <path
       style="fill:none;stroke:#000000;stroke-width:0.365938px;stroke-linecap:butt;stroke-linejoin:miter;stroke-miterlimit:8;stroke-dasharray:none;stroke-opacity:1"
       d="M 120.6922,67.67786 V 56.525468 l 11.15238,11.152392 z"
       id="path203" />
    <path
       style="fill:none;stroke:#000000;stroke-width:0.365938px;stroke-linecap:butt;stroke-linejoin:miter;stroke-miterlimit:8;stroke-dasharray:none;stroke-opacity:1"
       d="M 120.6922,67.67786 V 78.830253 L 109.53981,67.67786 Z"
       id="path205" />
    <path
       id="path207"
       d="M 120.6922,67.67786 V 78.830252 L 131.84458,67.67786 Z"
       style="fill:none;stroke:#000000;stroke-width:0.365938px;stroke-linecap:butt;stroke-linejoin:miter;stroke-miterlimit:8;stroke-dasharray:none;stroke-opacity:1" />
    <path
       id="path47-6"
       d="m 92.985776,48.139635 10.686334,10.61432 10.68634,-10.61432 z"
       style="fill:#ffffff;stroke:#000000;stroke-width:0.485119px;stroke-linecap:butt;stroke-linejoin:miter;stroke-miterlimit:8;stroke-dasharray:none;stroke-opacity:1" />
    <path
       style="fill:#ffffff;stroke:#000000;stroke-width:0.485119px;stroke-linecap:butt;stroke-linejoin:miter;stroke-miterlimit:8;stroke-dasharray:none;stroke-opacity:1"
       d="M 92.985776,48.139635 103.67212,37.525314 114.35845,48.139635 Z"
       id="path224" />
    <text
       id="text228"
       y="31.716476"
       x="7.9949255"
       style="font-size:4.59618px;line-height:1.25;font-family:sans-serif;stroke-width:0.14363"
       xml:space="preserve"><tspan
         style="stroke-width:0.14363"
         y="31.716476"
         x="7.9949255"
         id="tspan226"
         sodipodi:role="line">Axis.Side(Aute-O-Yein)Zenter.</tspan><tspan
         id="tspan230"
         style="stroke-width:0.14363"
         y="37.4617"
         x="7.9949255"
         sodipodi:role="line">Atowards.MetricFirst)</tspan></text>
    <path
       id="path55-3"
       d="m 80.277791,96.661143 2.232597,11.103887 h 7.804988 l 2.250746,-11.103887 z"
       style="fill:#f9f9f9;stroke:#000000;stroke-width:0.424176px;stroke-linecap:butt;stroke-linejoin:miter;stroke-miterlimit:8;stroke-dasharray:none;stroke-opacity:1" />
    <path
       style="fill:#f9f9f9;stroke:#000000;stroke-width:0.424176px;stroke-linecap:butt;stroke-linejoin:miter;stroke-miterlimit:8;stroke-dasharray:none;stroke-opacity:1"
       d="m 78.376118,88.353404 -9.605155,2.580958 v 9.02283 l 9.605155,2.601938 z"
       id="path55-3-0" />
    <path
       id="path262"
       d="m 94.570823,88.483645 9.605157,2.580959 v 9.022836 l -9.605157,2.60193 z"
       style="fill:#f9f9f9;stroke:#000000;stroke-width:0.424176px;stroke-linecap:butt;stroke-linejoin:miter;stroke-miterlimit:8;stroke-dasharray:none;stroke-opacity:1" />
    <path
       id="path264"
       d="m 107.99255,124.41554 3.31369,1.00757 -0.22852,0.26614 -0.88149,-3.84018 v 0 -0.076 l 0.0164,-0.0951 0.0326,-0.038 0.049,-0.057 h 0.0653 0.0653 l 0.049,0.019 0.049,0.057 0.0326,0.0761 v 0 l 0.96309,4.2014 -3.62384,-1.10263 v 0 l -0.0653,-0.038 -0.049,-0.057 -0.0163,-0.057 v -0.076 -0.076 l 0.049,-0.057 0.049,-0.057 h 0.0653 z m -11.426584,-16.19725 14.821904,17.26185 v 0 l -0.26118,0.30417 v 0 l -14.8219,-17.26185 v 0 z"
       style="fill:none;fill-opacity:1;fill-rule:nonzero;stroke:#000000;stroke-width:0.338751" />
    <path
       style="fill:#00ff00;stroke:#000000;stroke-width:0.380355px;stroke-linecap:butt;stroke-linejoin:miter;stroke-miterlimit:8;stroke-dasharray:none;stroke-opacity:1"
       d="m 111.23879,99.478341 4.29839,-6.62424 7.69069,1.86039 0.43644,7.790599 -7.41406,2.94597 z"
       id="path39-9-1" />
  </g>
</svg>
