<?xml version="1.0" encoding="UTF-8" standalone="no"?>
<svg
   xmlns:dc="http://purl.org/dc/elements/1.1/"
   xmlns:cc="http://creativecommons.org/ns#"
   xmlns:rdf="http://www.w3.org/1999/02/22-rdf-syntax-ns#"
   xmlns:svg="http://www.w3.org/2000/svg"
   xmlns="http://www.w3.org/2000/svg"
   xmlns:sodipodi="http://sodipodi.sourceforge.net/DTD/sodipodi-0.dtd"
   xmlns:inkscape="http://www.inkscape.org/namespaces/inkscape"
   width="210mm"
   height="297mm"
   viewBox="0 0 210 297"
   version="1.1"
   id="svg8"
   inkscape:version="1.0 (4035a4fb49, 2020-05-01)"
   sodipodi:docname="shapeable.svg">
  <defs
     id="defs2">
    <rect
       id="rect1116"
       height="66.680825"
       width="43.252427"
       y="202.2051"
       x="199.3216" />
    <rect
       id="rect1039"
       height="146.33738"
       width="352.86772"
       y="188.86893"
       x="-41.089806" />
    <pattern
       y="0"
       x="0"
       height="6"
       width="6"
       patternUnits="userSpaceOnUse"
       id="EMFhbasepattern" />
    <clipPath
       id="clipEmfPath1"
       clipPathUnits="userSpaceOnUse">
      <path
         id="path98"
         d="M 0,0 L 46.014488,0 L 46.014488,43.013543 L 0,43.013543 z" />
    </clipPath>
    <pattern
       y="0"
       x="0"
       height="6"
       width="6"
       patternUnits="userSpaceOnUse"
       id="EMFhbasepattern-7" />
  </defs>
  <sodipodi:namedview
     id="base"
     pagecolor="#ffffff"
     bordercolor="#666666"
     borderopacity="1.0"
     inkscape:pageopacity="0.0"
     inkscape:pageshadow="2"
     inkscape:zoom="0.71357323"
     inkscape:cx="485.13846"
     inkscape:cy="516.41511"
     inkscape:document-units="mm"
     inkscape:current-layer="layer1"
     inkscape:document-rotation="0"
     showgrid="false"
     inkscape:window-width="927"
     inkscape:window-height="1034"
     inkscape:window-x="922"
     inkscape:window-y="0"
     inkscape:window-maximized="0" />
  <metadata
     id="metadata5">
    <rdf:RDF>
      <cc:Work
         rdf:about="">
        <dc:format>image/svg+xml</dc:format>
        <dc:type
           rdf:resource="http://purl.org/dc/dcmitype/StillImage" />
        <dc:title />
      </cc:Work>
    </rdf:RDF>
  </metadata>
  <g
     inkscape:label="图层 1"
     inkscape:groupmode="layer"
     id="layer1">
    <path
       id="path13"
       d="m 22.579273,27.745028 2.490667,-1.459375 v 0.272417 l -2.490667,-1.439917 v 0 l -0.03892,-0.03892 -0.03892,-0.05837 v -0.03892 -0.05837 l 0.03892,-0.03892 0.03892,-0.03892 0.03892,-0.01946 h 0.05838 l 0.05837,0.01946 v 0 l 2.724166,1.576125 -2.724166,1.595583 v 0 l -0.05837,0.01946 h -0.05838 l -0.03892,-0.01946 -0.03892,-0.03892 -0.03892,-0.03892 v -0.05837 -0.05837 l 0.03892,-0.03892 z M 7.4796071,26.266195 H 25.147773 v 0 0.311333 0 H 7.4796071 v 0 z"
       style="fill:#cccccc;fill-opacity:1;fill-rule:nonzero;stroke:#666666;stroke-width:0.264583" />
    <path
       id="path15"
       d="m 28.338945,25.09869 -2.490667,1.459375 v -0.272417 l 2.490667,1.459375 v 0 l 0.03892,0.03892 0.01946,0.03892 0.01946,0.05837 -0.01946,0.03892 -0.01946,0.05837 -0.03892,0.03892 -0.05837,0.01946 h -0.05838 l -0.03892,-0.01946 v 0 l -2.724166,-1.595585 2.724166,-1.595583 v 0 l 0.03892,-0.01946 h 0.05838 l 0.05837,0.01946 0.03892,0.03892 0.01946,0.05837 0.01946,0.03892 -0.01946,0.05837 -0.01946,0.03892 z m 11.733375,2.646333 2.490666,-1.459375 v 0.272417 L 40.07232,25.09869 v 0 l -0.03892,-0.03892 -0.01946,-0.03892 -0.01946,-0.05837 0.01946,-0.03892 0.01946,-0.05838 0.03892,-0.03892 0.05838,-0.01946 h 0.05837 l 0.03892,0.01946 v 0 l 2.724167,1.595583 -2.724167,1.595583 v 0 l -0.03892,0.01946 H 40.1307 l -0.05838,-0.01946 -0.03892,-0.03892 -0.01946,-0.05837 -0.01946,-0.03892 0.01946,-0.05837 0.01946,-0.03892 z M 25.770445,26.26619 H 42.64082 v 0 0.311333 0 H 25.770445 v 0 z"
       style="fill:none;fill-opacity:1;fill-rule:nonzero;stroke:#000000;stroke-width:0.264583" />
    <path
       id="path17"
       d="M 86.787234,97.531676 V 113.95168 H 103.73692 V 97.531676 Z"
       style="fill:#b3b3b3;fill-opacity:1;fill-rule:evenodd;stroke:#000000;stroke-width:0.450141" />
    <path
       id="path23"
       d="m 45.997046,87.251165 c 0,-0.97291 0.797792,-1.77071 1.770707,-1.77071 h 7.02446 c 0.972915,0 1.751248,0.7978 1.751248,1.77071 v 7.02446 c 0,0.97292 -0.778333,1.75125 -1.751248,1.75125 h -7.02446 c -0.972915,0 -1.770707,-0.77833 -1.770707,-1.75125 z"
       style="fill:none;stroke:#000000;stroke-width:0.408625px;stroke-linecap:butt;stroke-linejoin:miter;stroke-miterlimit:8;stroke-dasharray:none;stroke-opacity:1" />
    <path
       id="path27"
       d="m 15.391861,85.522905 h 8.775708 l 1.770709,1.75125 v 8.79516 H 15.391861 Z"
       style="fill:none;stroke:#000000;stroke-width:0.408625px;stroke-linecap:butt;stroke-linejoin:miter;stroke-miterlimit:8;stroke-dasharray:none;stroke-opacity:1" />
    <path
       id="path35"
       d="M 11.54643,64.22913 22.713984,53.030204 33.912911,64.22913 22.713984,75.428041 Z"
       style="fill:#e6e6e6;stroke:#000000;stroke-width:0.65876px;stroke-linecap:butt;stroke-linejoin:miter;stroke-miterlimit:8;stroke-dasharray:none;stroke-opacity:1" />
    <path
       id="path39"
       d="m 152.39733,111.61951 6.44071,-5.01193 6.46016,5.01193 -2.47121,8.11895 h -7.97791 z"
       style="fill:none;stroke:#000000;stroke-width:0.398373px;stroke-linecap:butt;stroke-linejoin:miter;stroke-miterlimit:8;stroke-dasharray:none;stroke-opacity:1" />
    <path
       id="path43"
       d="m 152.68585,129.92976 2.99658,-5.99316 h 6.94662 l 2.97713,5.99316 -2.97713,5.99317 h -6.94662 z"
       style="fill:none;stroke:#000000;stroke-width:0.408625px;stroke-linecap:butt;stroke-linejoin:miter;stroke-miterlimit:8;stroke-dasharray:none;stroke-opacity:1" />
    <path
       id="path47"
       d="m 114.07331,69.774086 11.40688,-19.814401 11.40687,19.814401 z"
       style="fill:#b3b3b3;stroke:#000000;stroke-width:0.684796px;stroke-linecap:butt;stroke-linejoin:miter;stroke-miterlimit:8;stroke-dasharray:none;stroke-opacity:1" />
    <path
       id="path55"
       d="m 116.96792,85.801921 2.23259,-11.103881 h 7.805 l 2.25074,11.103881 z"
       style="fill:#f9f9f9;stroke:#000000;stroke-width:0.424175px;stroke-linecap:butt;stroke-linejoin:miter;stroke-miterlimit:8;stroke-dasharray:none;stroke-opacity:1" />
    <path
       id="path59"
       d="M 26.834041,118.38073 30.7294,102.74157 h 16.33166 l -3.924214,15.63916 z"
       style="fill:#b3b3b3;stroke:#000000;stroke-width:0.605945px;stroke-linecap:butt;stroke-linejoin:miter;stroke-miterlimit:8;stroke-dasharray:none;stroke-opacity:1" />
    <path
       id="path63"
       d="m 165.10026,148.3535 -6.46017,5.29266 -6.44071,-5.29266 2.45176,-8.54221 h 7.97791 z"
       style="fill:none;stroke:#000000;stroke-width:0.408625px;stroke-linecap:butt;stroke-linejoin:miter;stroke-miterlimit:8;stroke-dasharray:none;stroke-opacity:1" />
    <path
       id="path104"
       d="m 30.209943,85.388809 h 8.808859 l 1.666541,1.590022 v 9.01012 h -9.046936 l -1.428464,-1.590022 z"
       style="fill:none;fill-opacity:1;fill-rule:evenodd;stroke:#000000;stroke-width:0.251101" />
    <path
       style="fill:none;stroke:#000000;stroke-width:0.408625px;stroke-linecap:butt;stroke-linejoin:miter;stroke-miterlimit:8;stroke-dasharray:none;stroke-opacity:1"
       d="m 177.88537,123.44142 5.27319,6.44071 -5.27319,6.46016 -8.54222,-2.47121 v -7.97791 z"
       id="path39-9" />
    <path
       style="fill:none;stroke:#000000;stroke-width:0.408625px;stroke-linecap:butt;stroke-linejoin:miter;stroke-miterlimit:8;stroke-dasharray:none;stroke-opacity:1"
       d="m 141.56757,136.61508 -5.29265,-6.46017 5.29265,-6.44071 8.5422,2.45176 v 7.97791 z"
       id="path63-3" />
    <text
       xml:space="preserve"
       style="font-size:4.13062px;line-height:1.25;font-family:sans-serif;stroke-width:0.129082"
       x="10.58091"
       y="126.56263"
       id="text141"><tspan
         sodipodi:role="line"
         id="tspan139"
         x="10.58091"
         y="126.56263"
         style="stroke-width:0.129082">Axis.SideOffset</tspan><tspan
         sodipodi:role="line"
         x="10.58091"
         y="131.72591"
         style="stroke-width:0.129082"
         id="tspan180">Renliy.VisionBiasiz</tspan><tspan
         sodipodi:role="line"
         x="10.58091"
         y="136.88918"
         style="stroke-width:0.129082"
         id="tspan326">Side.Rotate-O-Directly^Attach</tspan></text>
    <text
       id="text141-1"
       y="16.487886"
       x="117.92711"
       style="font-size:4.13062px;line-height:1.25;font-family:sans-serif;stroke-width:0.129082"
       xml:space="preserve"><tspan
         style="stroke-width:0.129082"
         y="16.487886"
         x="117.92711"
         id="tspan139-3"
         sodipodi:role="line">Axis.Center.Aute(Side)Inside</tspan><tspan
         style="stroke-width:0.129082"
         y="21.651161"
         x="117.92711"
         sodipodi:role="line"
         id="tspan163">Tsc.Pushed.Caeilful.Rotate</tspan><tspan
         style="stroke-width:0.129082"
         y="26.814436"
         x="117.92711"
         sodipodi:role="line"
         id="tspan161">Tricylce.Color</tspan></text>
    <path
       style="fill:#ffaaaa;stroke:#000000;stroke-width:0.605946px;stroke-linecap:butt;stroke-linejoin:miter;stroke-miterlimit:8;stroke-dasharray:none;stroke-opacity:1"
       d="m 27.028938,145.33918 15.63915,3.89535 v 16.33166 l -15.63915,-3.92421 z"
       id="path59-7" />
    <path
       style="fill:none;stroke:#000000;stroke-width:0.365938px;stroke-linecap:butt;stroke-linejoin:miter;stroke-miterlimit:8;stroke-dasharray:none;stroke-opacity:1"
       d="M 157.62809,60.978188 V 49.825795 L 146.4757,60.978188 Z"
       id="path201" />
    <path
       id="path203"
       d="M 157.62809,60.978188 V 49.825796 l 11.15238,11.152392 z"
       style="fill:none;stroke:#000000;stroke-width:0.365938px;stroke-linecap:butt;stroke-linejoin:miter;stroke-miterlimit:8;stroke-dasharray:none;stroke-opacity:1" />
    <path
       id="path205"
       d="M 157.62809,60.978188 V 72.130581 L 146.4757,60.978188 Z"
       style="fill:none;stroke:#000000;stroke-width:0.365938px;stroke-linecap:butt;stroke-linejoin:miter;stroke-miterlimit:8;stroke-dasharray:none;stroke-opacity:1" />
    <path
       style="fill:none;stroke:#000000;stroke-width:0.365938px;stroke-linecap:butt;stroke-linejoin:miter;stroke-miterlimit:8;stroke-dasharray:none;stroke-opacity:1"
       d="M 157.62809,60.978188 V 72.13058 l 11.15238,-11.152392 z"
       id="path207" />
    <path
       style="fill:#ffffff;stroke:#000000;stroke-width:0.485119px;stroke-linecap:butt;stroke-linejoin:miter;stroke-miterlimit:8;stroke-dasharray:none;stroke-opacity:1"
       d="m 129.92167,41.439963 10.68633,10.61432 10.68634,-10.61432 z"
       id="path47-6" />
    <path
       id="path224"
       d="m 129.92167,41.439963 10.68634,-10.614321 10.68633,10.614321 z"
       style="fill:#ffffff;stroke:#000000;stroke-width:0.485119px;stroke-linecap:butt;stroke-linejoin:miter;stroke-miterlimit:8;stroke-dasharray:none;stroke-opacity:1" />
    <text
       xml:space="preserve"
       style="font-size:4.59618px;line-height:1.25;font-family:sans-serif;stroke-width:0.14363"
       x="9.8488579"
       y="16.514229"
       id="text228"><tspan
         sodipodi:role="line"
         id="tspan226"
         x="9.8488579"
         y="16.514229"
         style="stroke-width:0.14363">Axis.Side(Aute-O-Yein)Zenter.</tspan><tspan
         sodipodi:role="line"
         x="9.8488579"
         y="22.259455"
         style="stroke-width:0.14363"
         id="tspan230">Atowards.MetricFirst)</tspan></text>
    <path
       style="fill:#f9f9f9;stroke:#000000;stroke-width:0.424176px;stroke-linecap:butt;stroke-linejoin:miter;stroke-miterlimit:8;stroke-dasharray:none;stroke-opacity:1"
       d="m 117.21368,89.961472 2.2326,11.103888 h 7.80499 l 2.25074,-11.103888 z"
       id="path55-3" />
    <path
       id="path55-3-0"
       d="m 115.31201,81.653732 -9.60516,2.580958 v 9.022832 l 9.60516,2.60194 z"
       style="fill:#f9f9f9;stroke:#000000;stroke-width:0.424176px;stroke-linecap:butt;stroke-linejoin:miter;stroke-miterlimit:8;stroke-dasharray:none;stroke-opacity:1" />
    <path
       style="fill:#f9f9f9;stroke:#000000;stroke-width:0.424176px;stroke-linecap:butt;stroke-linejoin:miter;stroke-miterlimit:8;stroke-dasharray:none;stroke-opacity:1"
       d="m 131.50671,81.783973 9.60516,2.580959 v 9.02284 l -9.60516,2.60193 z"
       id="path262" />
    <path
       id="path39-9-1"
       d="m 148.17468,92.778672 4.29839,-6.624243 7.69069,1.86039 0.43644,7.790603 -7.41406,2.94597 z"
       style="fill:#00ff00;stroke:#000000;stroke-width:0.380355px;stroke-linecap:butt;stroke-linejoin:miter;stroke-miterlimit:8;stroke-dasharray:none;stroke-opacity:1" />
    <path
       id="path59-7-6"
       d="m 26.413275,166.26356 3.89535,15.63915 h 16.33166 l -3.92421,-15.63915 z"
       style="fill:#ffaaaa;stroke:#000000;stroke-width:0.605946px;stroke-linecap:butt;stroke-linejoin:miter;stroke-miterlimit:8;stroke-dasharray:none;stroke-opacity:1" />
    <g
       transform="translate(0,8.5280899)"
       style="fill:#00ffff;stroke-width:0.396875;stroke-miterlimit:4;stroke-dasharray:none"
       id="g1771">
      <path
         id="path304"
         d="m 27.028938,153.11389 0.03194,4.52484"
         style="fill:#00ffff;stroke:#000000;stroke-width:0.396875;stroke-linecap:butt;stroke-linejoin:miter;stroke-miterlimit:4;stroke-dasharray:none;stroke-opacity:1" />
      <path
         id="path310"
         d="m 27.060879,157.63873 15.655194,0.0967 -15.687135,-4.62158 v 0"
         style="fill:#00ffff;stroke:#000000;stroke-width:0.396875;stroke-linecap:butt;stroke-linejoin:miter;stroke-miterlimit:4;stroke-dasharray:none;stroke-opacity:1" />
    </g>
    <path
       id="path312"
       d="m 64.734442,173.71253 0.02488,3.52482"
       style="fill:none;stroke:#000000;stroke-width:0.206108px;stroke-linecap:butt;stroke-linejoin:miter;stroke-opacity:1" />
    <path
       id="path314"
       d="m 64.759323,177.23735 12.195298,0.0753 -12.22018,-3.60019 v 0"
       style="fill:none;stroke:#000000;stroke-width:0.206108px;stroke-linecap:butt;stroke-linejoin:miter;stroke-opacity:1" />
    <path
       style="fill:none;stroke:#000000;stroke-width:0.164546px;stroke-linecap:butt;stroke-linejoin:miter;stroke-opacity:1"
       d="m 64.002077,177.17852 0.732364,-3.46603"
       id="path316" />
    <path
       id="path318"
       d="m 92.085584,162.64616 5.84986,1.45707 v 6.10889 l -5.84986,-1.46785 z"
       style="fill:#f9f9f9;stroke:#000000;stroke-width:0.226655px;stroke-linecap:butt;stroke-linejoin:miter;stroke-miterlimit:8;stroke-dasharray:none;stroke-opacity:1" />
    <path
       style="fill:#f9f9f9;stroke:#000000;stroke-width:0.226655px;stroke-linecap:butt;stroke-linejoin:miter;stroke-miterlimit:8;stroke-dasharray:none;stroke-opacity:1"
       d="m 92.085584,168.74427 -0.10664,6.02763 5.90074,1.5811 0.0962,-6.03043 z"
       id="path320" />
    <path
       id="path328"
       d="m 98.042074,164.18447 -0.10663,6.02765 5.900736,1.5811 0.0962,-6.03045 z"
       style="fill:#f9f9f9;stroke:#000000;stroke-width:0.226655px;stroke-linecap:butt;stroke-linejoin:miter;stroke-miterlimit:8;stroke-dasharray:none;stroke-opacity:1" />
    <path
       style="fill:#f9f9f9;stroke:#000000;stroke-width:0.226655px;stroke-linecap:butt;stroke-linejoin:miter;stroke-miterlimit:8;stroke-dasharray:none;stroke-opacity:1"
       d="m 86.195264,161.06786 -0.10664,6.02765 5.90075,1.5811 0.0962,-6.03045 z"
       id="path330" />
    <path
       id="path332"
       d="m 92.192224,156.61851 -0.10664,6.02765 5.90074,1.5811 0.0962,-6.03045 z"
       style="fill:#f9f9f9;stroke:#000000;stroke-width:0.226655px;stroke-linecap:butt;stroke-linejoin:miter;stroke-miterlimit:8;stroke-dasharray:none;stroke-opacity:1" />
    <path
       id="path334"
       d="m 91.904774,169.7496 0.90097,5.96089 6.08187,0.57399 -0.91172,-5.96191 z"
       style="fill:#cccccc;stroke:#000000;stroke-width:0.226655px;stroke-linecap:butt;stroke-linejoin:miter;stroke-miterlimit:8;stroke-dasharray:none;stroke-opacity:1" />
    <path
       id="path55-3-7"
       d="m 84.557563,126.93328 2.01995,6.61412 h 7.06158 l 2.03635,-6.61412 z"
       style="fill:#f2f2f2;stroke:#000000;stroke-width:0.311391px;stroke-linecap:butt;stroke-linejoin:miter;stroke-miterlimit:8;stroke-dasharray:none;stroke-opacity:1" />
    <path
       style="fill:#f2f2f2;stroke:#000000;stroke-width:0.259656px;stroke-linecap:butt;stroke-linejoin:miter;stroke-miterlimit:8;stroke-dasharray:none;stroke-opacity:1"
       d="m 84.718953,126.93328 5.47825,-5.93172 5.47824,5.93172 z"
       id="path224-1" />
    <text
       transform="translate(0,8.5280899)"
       style="font-size:8.46667px;line-height:1.25;font-family:sans-serif;white-space:pre;shape-inside:url(#rect1039);"
       id="text1037"
       xml:space="preserve" />
    <text
       transform="translate(0,8.5280899)"
       style="font-size:8.46667px;line-height:1.25;font-family:sans-serif;white-space:pre;shape-inside:url(#rect1116);"
       id="text1114"
       xml:space="preserve" />
    <path
       style="fill:#b3b3b3;stroke:#000000;stroke-width:0.605945px;stroke-linecap:butt;stroke-linejoin:miter;stroke-miterlimit:8;stroke-dasharray:none;stroke-opacity:1"
       d="m 60.576791,118.15274 3.895359,-15.63916 h 16.33166 l -3.924214,15.63916 z"
       id="path1940" />
    <path
       style="fill:none;stroke:#000000;stroke-width:0.264583px;stroke-linecap:butt;stroke-linejoin:miter;stroke-opacity:1"
       d="m 64.47215,102.51358 12.407445,15.63916"
       id="path1942" />
    <path
       style="fill:#cccccc;fill-opacity:1;fill-rule:nonzero;stroke:#666666;stroke-width:0.265;stroke-miterlimit:4;stroke-dasharray:1.06, 0.265;stroke-dashoffset:0"
       d="m 67.949592,27.517036 2.490667,-1.459375 v 0.272417 l -2.490667,-1.439917 v 0 l -0.03892,-0.03892 -0.03892,-0.05837 v -0.03892 -0.05837 l 0.03892,-0.03892 0.03892,-0.03892 0.03892,-0.01946 h 0.05838 l 0.05837,0.01946 v 0 l 2.724166,1.576125 -2.724166,1.595583 v 0 l -0.05837,0.01946 h -0.05838 l -0.03892,-0.01946 -0.03892,-0.03892 -0.03892,-0.03892 v -0.05837 -0.05837 l 0.03892,-0.03892 z M 52.849926,26.038203 h 17.668166 v 0 0.311333 0 H 52.849926 v 0 z"
       id="path1944" />
    <path
       style="fill:none;fill-opacity:1;fill-rule:nonzero;stroke:#000000;stroke-width:0.265;stroke-miterlimit:4;stroke-dasharray:1.06, 0.265;stroke-dashoffset:0"
       d="m 73.709264,24.870698 -2.490667,1.459375 v -0.272417 l 2.490667,1.459375 v 0 l 0.03892,0.03892 0.01946,0.03892 0.01946,0.05837 -0.01946,0.03892 -0.01946,0.05837 -0.03892,0.03892 -0.05837,0.01946 h -0.05838 l -0.03892,-0.01946 v 0 l -2.724166,-1.595585 2.724166,-1.595583 v 0 l 0.03892,-0.01946 h 0.05838 l 0.05837,0.01946 0.03892,0.03892 0.01946,0.05837 0.01946,0.03892 -0.01946,0.05837 -0.01946,0.03892 z m 11.733375,2.646333 2.490666,-1.459375 v 0.272417 l -2.490666,-1.459375 v 0 l -0.03892,-0.03892 -0.01946,-0.03892 -0.01946,-0.05837 0.01946,-0.03892 0.01946,-0.05838 0.03892,-0.03892 0.05838,-0.01946 h 0.05837 l 0.03892,0.01946 v 0 l 2.724167,1.595583 -2.724167,1.595583 v 0 l -0.03892,0.01946 h -0.05837 l -0.05838,-0.01946 -0.03892,-0.03892 -0.01946,-0.05837 -0.01946,-0.03892 0.01946,-0.05837 0.01946,-0.03892 z M 71.140764,26.038198 h 16.870375 v 0 0.311333 0 H 71.140764 v 0 z"
       id="path1946" />
    <path
       style="fill:#00ff66;stroke:#000000;stroke-width:0.224053px;stroke-linecap:butt;stroke-linejoin:miter;stroke-miterlimit:8;stroke-dasharray:none;stroke-opacity:1"
       d="m 236.77358,148.32988 3.53149,-2.89135 3.54216,2.89135 -1.35498,4.68376 h -4.37436 z"
       id="path39-7" />
    <path
       style="fill:#00ff66;stroke:#000000;stroke-width:0.224053px;stroke-linecap:butt;stroke-linejoin:miter;stroke-miterlimit:8;stroke-dasharray:none;stroke-opacity:1"
       d="m 236.93178,158.60162 1.64305,-3.2861 h 3.80889 l 1.63238,3.2861 -1.63238,3.2861 h -3.80889 z"
       id="path43-8" />
    <path
       style="fill:#00ff66;stroke:#000000;stroke-width:0.224053px;stroke-linecap:butt;stroke-linejoin:miter;stroke-miterlimit:8;stroke-dasharray:none;stroke-opacity:1"
       d="m 243.7387,168.70351 -3.54217,2.90201 -3.53149,-2.90201 1.34432,-4.68377 h 4.37436 z"
       id="path63-6" />
    <path
       id="path39-9-0"
       d="m 250.74888,155.04401 2.89134,3.53149 -2.89134,3.54216 -4.68377,-1.35498 v -4.37436 z"
       style="fill:#00ff66;stroke:#000000;stroke-width:0.224053px;stroke-linecap:butt;stroke-linejoin:miter;stroke-miterlimit:8;stroke-dasharray:none;stroke-opacity:1" />
    <path
       id="path63-3-7"
       d="m 230.83553,162.26723 -2.90201,-3.54216 2.90201,-3.5315 4.68376,1.34432 v 4.37436 z"
       style="fill:#00ff66;stroke:#000000;stroke-width:0.224053px;stroke-linecap:butt;stroke-linejoin:miter;stroke-miterlimit:8;stroke-dasharray:none;stroke-opacity:1" />
    <path
       id="path1064"
       d="m 245.15602,148.47737 4.54164,0.45265 0.4602,4.54918 -4.27005,2.3538 -3.09313,-3.09313 z"
       style="fill:#00ff66;stroke:#000000;stroke-width:0.224053px;stroke-linecap:butt;stroke-linejoin:miter;stroke-miterlimit:8;stroke-dasharray:none;stroke-opacity:1" />
    <path
       id="path1066"
       d="m 237.44089,156.58718 3.06597,-2.02432 3.2986,1.90444 -0.22936,3.66204 -3.05674,2.02966 -3.29859,-1.90444 z"
       style="fill:#00ff66;stroke:#000000;stroke-width:0.224053px;stroke-linecap:butt;stroke-linejoin:miter;stroke-miterlimit:8;stroke-dasharray:none;stroke-opacity:1" />
    <path
       id="path1068"
       d="m 235.67478,167.80878 -4.55672,-0.45265 -0.44512,-4.54918 4.2625,-2.36134 3.09314,3.09313 z"
       style="fill:#00ff66;stroke:#000000;stroke-width:0.224053px;stroke-linecap:butt;stroke-linejoin:miter;stroke-miterlimit:8;stroke-dasharray:none;stroke-opacity:1" />
    <path
       style="fill:#00ff66;stroke:#000000;stroke-width:0.224053px;stroke-linecap:butt;stroke-linejoin:miter;stroke-miterlimit:8;stroke-dasharray:none;stroke-opacity:1"
       d="m 250.29045,163.107 -0.45266,4.54163 -4.54916,0.4602 -2.35382,-4.27004 3.09314,-3.09314 z"
       id="path1070" />
    <path
       style="fill:#00ff66;stroke:#000000;stroke-width:0.224053px;stroke-linecap:butt;stroke-linejoin:miter;stroke-miterlimit:8;stroke-dasharray:none;stroke-opacity:1"
       d="m 231.10199,154.13373 0.45266,-4.55672 4.54917,-0.44511 2.36134,4.2625 -3.09313,3.09313 z"
       id="path1072" />
    <text
       xml:space="preserve"
       style="font-size:3.52777px;line-height:1.25;font-family:sans-serif;stroke-width:0.264583"
       x="165.90945"
       y="77.88517"
       id="text147"><tspan
         sodipodi:role="line"
         id="tspan145"
         x="165.90945"
         y="77.88517"
         style="stroke-width:0.264583">正五边形 视觉偏差 </tspan><tspan
         sodipodi:role="line"
         x="165.90945"
         y="82.383728"
         style="stroke-width:0.264583"
         id="tspan149">  视觉</tspan><tspan
         sodipodi:role="line"
         x="165.90945"
         y="86.882294"
         style="stroke-width:0.264583"
         id="tspan157">  视力偏差</tspan><tspan
         sodipodi:role="line"
         x="165.90945"
         y="91.380852"
         style="stroke-width:0.264583"
         id="tspan153">  时差</tspan><tspan
         sodipodi:role="line"
         x="165.90945"
         y="95.879417"
         style="stroke-width:0.264583"
         id="tspan155">  察觉</tspan><tspan
         sodipodi:role="line"
         x="165.90945"
         y="100.37798"
         style="stroke-width:0.264583"
         id="tspan159">?钝角组合梯形是正五边形</tspan><tspan
         sodipodi:role="line"
         x="165.90945"
         y="104.87653"
         style="stroke-width:0.264583"
         id="tspan151">亚子角</tspan></text>
    <path
       id="path3141"
       d="m 91.713623,47.643035 6.111232,10.615559 6.111225,-10.615559 z"
       style="fill:#b3b3b3;stroke:#000000;stroke-width:0.366879px;stroke-linecap:butt;stroke-linejoin:miter;stroke-miterlimit:8;stroke-dasharray:none;stroke-opacity:1" />
    <path
       id="path3143"
       d="m 91.713623,47.643035 6.111232,-10.61556 6.111225,10.61556 z"
       style="fill:#b3b3b3;stroke:#000000;stroke-width:0.366879px;stroke-linecap:butt;stroke-linejoin:miter;stroke-miterlimit:8;stroke-dasharray:none;stroke-opacity:1" />
    <path
       id="path155"
       d="m 86.884642,105.78183 3.027356,-7.979525 h 10.583442 l 3.05199,7.979525 z"
       style="fill:#e6e6e6;stroke:#000000;stroke-width:0.41872px;stroke-linecap:butt;stroke-linejoin:miter;stroke-miterlimit:8;stroke-dasharray:none;stroke-opacity:1" />
    <text
       xml:space="preserve"
       style="font-size:3.52777px;line-height:1.25;font-family:sans-serif;stroke-width:0.264583"
       x="56.306854"
       y="80.152382"
       id="text160"><tspan
         sodipodi:role="line"
         id="tspan158"
         x="56.306854"
         y="80.152382"
         style="stroke-width:0.264583">Duplikr.Inside</tspan></text>
    <path
       id="path162"
       d="m 86.884642,105.78183 3.027356,7.97952 h 10.583442 l 3.05199,-7.97952 z"
       style="fill:#e6e6e6;stroke:#000000;stroke-width:0.41872px;stroke-linecap:butt;stroke-linejoin:miter;stroke-miterlimit:8;stroke-dasharray:none;stroke-opacity:1" />
    <path
       id="path982"
       d="m 136.08113,156.12248 -3.31369,1.00757 0.22852,0.26614 0.88149,-3.84018 v 0 -0.076 l -0.0164,-0.0951 -0.0326,-0.038 -0.049,-0.057 h -0.0653 -0.0653 l -0.049,0.019 -0.049,0.057 -0.0326,0.0761 v 0 l -0.96309,4.2014 3.62384,-1.10263 v 0 l 0.0653,-0.038 0.049,-0.057 0.0163,-0.057 v -0.076 -0.076 l -0.049,-0.057 -0.049,-0.057 h -0.0653 z m 11.42658,-16.19725 -14.8219,17.26185 v 0 l 0.26118,0.30417 v 0 l 14.8219,-17.26185 v 0 z"
       style="fill:none;fill-opacity:1;fill-rule:nonzero;stroke:#000000;stroke-width:0.338751" />
    <path
       style="fill:none;fill-opacity:1;fill-rule:evenodd;stroke:#000000;stroke-width:0.371697"
       d="m 122.92818,168.99067 v 7.36967 h 25.74957 v -7.36967 z"
       id="path984" />
    <path
       style="fill:none;stroke:#000000;stroke-width:0.559174px;stroke-linecap:butt;stroke-linejoin:miter;stroke-miterlimit:8;stroke-dasharray:none;stroke-opacity:1"
       d="m 123.01321,168.9462 4.65913,-9.24656 h 16.28802 l 4.69707,9.24656 z"
       id="path986" />
    <path
       style="fill:none;stroke:#000000;stroke-width:0.547964px;stroke-linecap:butt;stroke-linejoin:miter;stroke-miterlimit:8;stroke-dasharray:none;stroke-opacity:1"
       d="m 122.95259,176.37227 4.66942,8.86003 h 16.32391 l 4.70741,-8.86003 z"
       id="path988" />
    <text
       xml:space="preserve"
       style="font-size:4.7865px;line-height:1.25;font-family:sans-serif;stroke-width:0.149578"
       x="97.581726"
       y="125.63248"
       id="text992"><tspan
         sodipodi:role="line"
         id="tspan990"
         x="97.581726"
         y="125.63248"
         style="stroke-width:0.149578">边.塌陷于延展</tspan><tspan
         sodipodi:role="line"
         x="97.581726"
         y="131.73616"
         style="stroke-width:0.149578"
         id="tspan994">角.顿开个数</tspan></text>
    <path
       style="fill:#e6e6e6;stroke:#000000;stroke-width:0.65876px;stroke-linecap:butt;stroke-linejoin:miter;stroke-miterlimit:8;stroke-dasharray:none;stroke-opacity:1"
       d="m 55.580127,71.650279 -0.02218,-15.815489 15.837674,-10e-7 -1.2e-5,15.837663 z"
       id="path996" />
    <text
       xml:space="preserve"
       style="font-size:3.37731px;line-height:1.25;font-family:sans-serif;stroke-width:0.105541"
       x="88.182259"
       y="68.785561"
       id="text992-7"><tspan
         sodipodi:role="line"
         id="tspan990-9"
         x="88.182259"
         y="68.785561"
         style="stroke-width:0.105541">边.塌陷于延展</tspan><tspan
         sodipodi:role="line"
         x="88.182259"
         y="73.092255"
         style="stroke-width:0.105541"
         id="tspan994-9">角.顿开个数</tspan></text>
    <path
       style="fill:none;fill-opacity:1;fill-rule:nonzero;stroke:#000000;stroke-width:0.424576;stroke-miterlimit:4;stroke-dasharray:1.69831, 0.424576;stroke-dashoffset:0"
       d="m 82.318442,71.094383 -4.79985,0.09989 0.220228,-0.367444 2.440283,3.837018 v 0 l 0.0251,0.0817 -0.0031,0.06709 -0.01891,0.09333 -0.05974,0.03789 -0.07547,0.06412 -0.08804,0.02331 -0.100573,-0.01755 -0.08486,-0.04381 -0.04084,-0.05544 v 0 l -2.66955,-4.195922 5.24934,-0.108441 v 0 l 0.0723,0.003 0.08486,0.04381 0.0691,0.07005 0.02511,0.0817 -0.01891,0.09334 -0.0031,0.06709 -0.07547,0.06412 -0.05976,0.03789 z m 14.914567,12.372155 4.799851,-0.0999 -0.22023,0.367447 -2.440283,-3.83702 v 0 l -0.02511,-0.0817 0.0031,-0.06709 0.01891,-0.09333 0.05974,-0.03789 0.07548,-0.06415 0.08802,-0.0233 0.100584,0.01756 0.08484,0.04378 0.04084,0.05544 v 0 l 2.669549,4.19592 -5.249338,0.108442 v 0 l -0.0723,-0.003 -0.08484,-0.04378 -0.06912,-0.07005 -0.0251,-0.0817 0.01889,-0.09333 0.0031,-0.06709 0.07547,-0.06412 0.05974,-0.03788 z M 77.641422,70.74219 102.16172,83.398795 v 0 l -0.25169,0.419935 v 0 L 77.389736,71.162126 v 0 z"
       id="path1026" />
    <path
       id="path1028"
       d="m 39.614768,63.937491 -2.490667,1.459375 v -0.272417 l 2.490667,1.459375 v 0 l 0.03892,0.03892 0.01946,0.03892 0.01946,0.05837 -0.01946,0.03892 -0.01946,0.05837 -0.03892,0.03892 -0.05837,0.01946 h -0.05838 l -0.03892,-0.01946 v 0 l -2.724166,-1.595585 2.724166,-1.595583 v 0 l 0.03892,-0.01946 h 0.05838 l 0.05837,0.01946 0.03892,0.03892 0.01946,0.05837 0.01946,0.03892 -0.01946,0.05837 -0.01946,0.03892 z m 11.733375,2.646333 2.490666,-1.459375 v 0.272417 l -2.490666,-1.459375 v 0 l -0.03892,-0.03892 -0.01946,-0.03892 -0.01946,-0.05837 0.01946,-0.03892 0.01946,-0.05838 0.03892,-0.03892 0.05838,-0.01946 h 0.05837 l 0.03892,0.01946 v 0 l 2.724167,1.595583 -2.724167,1.595583 v 0 l -0.03892,0.01946 h -0.05837 l -0.05838,-0.01946 -0.03892,-0.03892 -0.01946,-0.05837 -0.01946,-0.03892 0.01946,-0.05837 0.01946,-0.03892 z M 37.046268,65.104991 h 16.870375 v 0 0.311333 0 H 37.046268 v 0 z"
       style="fill:none;fill-opacity:1;fill-rule:nonzero;stroke:#000000;stroke-width:0.264583" />
    <g
       style="stroke-width:0.396875;stroke-miterlimit:4;stroke-dasharray:none"
       transform="matrix(0,-1,-1,0,183.42248,208.93165)"
       id="g1777">
      <path
         style="fill:none;stroke:#000000;stroke-width:0.396875;stroke-linecap:butt;stroke-linejoin:miter;stroke-miterlimit:4;stroke-dasharray:none;stroke-opacity:1"
         d="m 27.028938,153.11389 0.03194,4.52484"
         id="path1773" />
      <path
         style="fill:#ffd5d5;stroke:#000000;stroke-width:0.396875;stroke-linecap:butt;stroke-linejoin:miter;stroke-miterlimit:4;stroke-dasharray:none;stroke-opacity:1"
         d="m 27.060879,157.63873 15.655194,0.0967 -15.687135,-4.62158 v 0"
         id="path1775" />
    </g>
    <g
       style="stroke-width:0.396875;stroke-miterlimit:4;stroke-dasharray:none"
       id="g1783"
       transform="matrix(0,1,1,0,-110.39778,139.23462)">
      <path
         id="path1779"
         d="m 27.028938,153.11389 0.03194,4.52484"
         style="fill:none;stroke:#000000;stroke-width:0.396875;stroke-linecap:butt;stroke-linejoin:miter;stroke-miterlimit:4;stroke-dasharray:none;stroke-opacity:1" />
      <path
         id="path1781"
         d="m 27.060879,157.63873 15.655194,0.0967 -15.687135,-4.62158 v 0"
         style="fill:#ffd5d5;stroke:#000000;stroke-width:0.396875;stroke-linecap:butt;stroke-linejoin:miter;stroke-miterlimit:4;stroke-dasharray:none;stroke-opacity:1" />
    </g>
  </g>
</svg>
