<?xml version="1.0" encoding="UTF-8" standalone="no"?>
<svg
   xmlns:dc="http://purl.org/dc/elements/1.1/"
   xmlns:cc="http://creativecommons.org/ns#"
   xmlns:rdf="http://www.w3.org/1999/02/22-rdf-syntax-ns#"
   xmlns:svg="http://www.w3.org/2000/svg"
   xmlns="http://www.w3.org/2000/svg"
   xmlns:sodipodi="http://sodipodi.sourceforge.net/DTD/sodipodi-0.dtd"
   xmlns:inkscape="http://www.inkscape.org/namespaces/inkscape"
   sodipodi:docname="shapeable.svg"
   inkscape:version="1.0 (4035a4fb49, 2020-05-01)"
   id="svg8"
   version="1.1"
   viewBox="0 0 210 297"
   height="297mm"
   width="210mm">
  <defs
     id="defs2">
    <pattern
       id="EMFhbasepattern"
       patternUnits="userSpaceOnUse"
       width="6"
       height="6"
       x="0"
       y="0" />
    <clipPath
       clipPathUnits="userSpaceOnUse"
       id="clipEmfPath1">
      <path
         d="M 0,0 L 46.014488,0 L 46.014488,43.013543 L 0,43.013543 z"
         id="path98" />
    </clipPath>
    <pattern
       id="EMFhbasepattern-7"
       patternUnits="userSpaceOnUse"
       width="6"
       height="6"
       x="0"
       y="0" />
  </defs>
  <sodipodi:namedview
     inkscape:window-maximized="1"
     inkscape:window-y="-8"
     inkscape:window-x="-8"
     inkscape:window-height="1057"
     inkscape:window-width="1858"
     showgrid="false"
     inkscape:document-rotation="0"
     inkscape:current-layer="layer1"
     inkscape:document-units="mm"
     inkscape:cy="319.08808"
     inkscape:cx="521.20675"
     inkscape:zoom="1.5650331"
     inkscape:pageshadow="2"
     inkscape:pageopacity="0.0"
     borderopacity="1.0"
     bordercolor="#666666"
     pagecolor="#ffffff"
     id="base" />
  <metadata
     id="metadata5">
    <rdf:RDF>
      <cc:Work
         rdf:about="">
        <dc:format>image/svg+xml</dc:format>
        <dc:type
           rdf:resource="http://purl.org/dc/dcmitype/StillImage" />
        <dc:title></dc:title>
      </cc:Work>
    </rdf:RDF>
  </metadata>
  <g
     id="layer1"
     inkscape:groupmode="layer"
     inkscape:label="图层 1">
    <path
       style="fill:none;fill-opacity:1;fill-rule:nonzero;stroke:#000000;stroke-width:0.264583"
       d="m 32.38291,22.864803 2.490667,-1.459375 v 0.272417 L 32.38291,20.237928 v 0 l -0.03892,-0.03892 -0.03892,-0.05837 v -0.03892 -0.05837 l 0.03892,-0.03892 0.03892,-0.03892 0.03892,-0.01946 h 0.05838 l 0.05837,0.01946 v 0 l 2.724166,1.576125 -2.724166,1.595583 v 0 l -0.05837,0.01946 h -0.05838 l -0.03892,-0.01946 -0.03892,-0.03892 -0.03892,-0.03892 v -0.05837 -0.05837 l 0.03892,-0.03892 z M 17.283244,21.38597 H 34.95141 v 0 0.311333 0 H 17.283244 v 0 z"
       id="path13" />
    <path
       style="fill:none;fill-opacity:1;fill-rule:nonzero;stroke:#000000;stroke-width:0.264583"
       d="m 51.961501,19.272745 -2.490667,1.459375 v -0.272417 l 2.490667,1.459375 v 0 l 0.03892,0.03892 0.01946,0.03892 0.01946,0.05837 -0.01946,0.03892 -0.01946,0.05837 -0.03892,0.03892 -0.05837,0.01946 h -0.05838 l -0.03892,-0.01946 v 0 l -2.724166,-1.595585 2.724166,-1.595583 v 0 l 0.03892,-0.01946 h 0.05838 l 0.05837,0.01946 0.03892,0.03892 0.01946,0.05837 0.01946,0.03892 -0.01946,0.05837 -0.01946,0.03892 z m 11.733375,2.646333 2.490666,-1.459375 v 0.272417 l -2.490666,-1.459375 v 0 l -0.03892,-0.03892 -0.01946,-0.03892 -0.01946,-0.05837 0.01946,-0.03892 0.01946,-0.05838 0.03892,-0.03892 0.05838,-0.01946 h 0.05837 l 0.03892,0.01946 v 0 l 2.724167,1.595583 -2.724167,1.595583 v 0 l -0.03892,0.01946 h -0.05837 l -0.05838,-0.01946 -0.03892,-0.03892 -0.01946,-0.05837 -0.01946,-0.03892 0.01946,-0.05837 0.01946,-0.03892 z M 49.393001,20.440245 h 16.870375 v 0 0.311333 0 H 49.393001 v 0 z"
       id="path15" />
    <path
       style="fill:#b3b3b3;fill-opacity:1;fill-rule:evenodd;stroke:#000000;stroke-width:0.450141"
       d="M 28.357032,57.066273 V 73.486275 H 45.306718 V 57.066273 Z"
       id="path17" />
    <path
       style="fill:none;stroke:#000000;stroke-width:0.408625px;stroke-linecap:butt;stroke-linejoin:miter;stroke-miterlimit:8;stroke-dasharray:none;stroke-opacity:1"
       d="m 47.180461,78.892134 c 0,-0.97291 0.797792,-1.77071 1.770707,-1.77071 h 7.02446 c 0.972915,0 1.751248,0.7978 1.751248,1.77071 v 7.02446 c 0,0.97292 -0.778333,1.75125 -1.751248,1.75125 h -7.02446 c -0.972915,0 -1.770707,-0.77833 -1.770707,-1.75125 z"
       id="path23" />
    <path
       style="fill:none;stroke:#000000;stroke-width:0.408625px;stroke-linecap:butt;stroke-linejoin:miter;stroke-miterlimit:8;stroke-dasharray:none;stroke-opacity:1"
       d="m 15.391861,76.994815 h 8.775708 l 1.770709,1.75125 v 8.79516 H 15.391861 Z"
       id="path27" />
    <path
       style="fill:#ffd5d5;stroke:#000000;stroke-width:0.65876px;stroke-linecap:butt;stroke-linejoin:miter;stroke-miterlimit:8;stroke-dasharray:none;stroke-opacity:1"
       d="M 60.750615,45.17157 71.918169,33.972644 83.117096,45.17157 71.918169,56.370481 Z"
       id="path35" />
    <path
       style="fill:none;stroke:#000000;stroke-width:0.408625px;stroke-linecap:butt;stroke-linejoin:miter;stroke-miterlimit:8;stroke-dasharray:none;stroke-opacity:1"
       d="m 114.95426,96.594453 6.44071,-5.273209 6.46016,5.273209 -2.47121,8.542207 h -7.97791 z"
       id="path39" />
    <path
       style="fill:none;stroke:#000000;stroke-width:0.408625px;stroke-linecap:butt;stroke-linejoin:miter;stroke-miterlimit:8;stroke-dasharray:none;stroke-opacity:1"
       d="m 115.74996,112.96113 2.99658,-5.99316 h 6.94662 l 2.97713,5.99316 -2.97713,5.99317 h -6.94662 z"
       id="path43" />
    <path
       style="fill:#e6e6e6;stroke:#000000;stroke-width:0.684796px;stroke-linecap:butt;stroke-linejoin:miter;stroke-miterlimit:8;stroke-dasharray:none;stroke-opacity:1"
       d="M 114.1614,57.87724 125.56828,38.062839 136.97515,57.87724 Z"
       id="path47" />
    <path
       style="fill:none;stroke:#000000;stroke-width:0.408625px;stroke-linecap:butt;stroke-linejoin:miter;stroke-miterlimit:8;stroke-dasharray:none;stroke-opacity:1"
       d="m 142.55212,95.741695 v -12.45334 l 12.45333,12.45334 z"
       id="path51" />
    <path
       style="fill:#f9f9f9;stroke:#000000;stroke-width:0.591994px;stroke-linecap:butt;stroke-linejoin:miter;stroke-miterlimit:8;stroke-dasharray:none;stroke-opacity:1"
       d="m 80.865039,80.356235 3.350174,-14.413234 h 11.711958 l 3.377414,14.413234 z"
       id="path55" />
    <path
       style="fill:#f2f2f2;stroke:#000000;stroke-width:0.605945px;stroke-linecap:butt;stroke-linejoin:miter;stroke-miterlimit:8;stroke-dasharray:none;stroke-opacity:1"
       d="m 56.93784,108.55601 3.895359,-15.639152 h 16.33166 l -3.924214,15.639152 z"
       id="path59" />
    <path
       style="fill:none;stroke:#000000;stroke-width:0.408625px;stroke-linecap:butt;stroke-linejoin:miter;stroke-miterlimit:8;stroke-dasharray:none;stroke-opacity:1"
       d="m 128.16437,131.38487 -6.46017,5.29266 -6.44071,-5.29266 2.45176,-8.54221 h 7.97791 z"
       id="path63" />
    <path
       style="fill:none;fill-opacity:1;fill-rule:evenodd;stroke:#000000;stroke-width:0.264583"
       d="m 30.216684,76.86746 h 9.792666 l 1.852667,1.588 v 8.99866 H 31.804684 l -1.588,-1.588 z"
       id="path104" />
    <path
       id="path39-9"
       d="m 140.94948,106.47279 5.27319,6.44071 -5.27319,6.46016 -8.54222,-2.47121 v -7.97791 z"
       style="fill:none;stroke:#000000;stroke-width:0.408625px;stroke-linecap:butt;stroke-linejoin:miter;stroke-miterlimit:8;stroke-dasharray:none;stroke-opacity:1" />
    <path
       id="path63-3"
       d="m 104.63168,119.64645 -5.292657,-6.46017 5.292657,-6.44071 8.5422,2.45176 v 7.97791 z"
       style="fill:none;stroke:#000000;stroke-width:0.408625px;stroke-linecap:butt;stroke-linejoin:miter;stroke-miterlimit:8;stroke-dasharray:none;stroke-opacity:1" />
    <text
       id="text141"
       y="115.36405"
       x="52.294357"
       style="font-size:4.13062px;line-height:1.25;font-family:sans-serif;stroke-width:0.129082"
       xml:space="preserve"><tspan
         style="stroke-width:0.129082"
         y="115.36405"
         x="52.294357"
         id="tspan139"
         sodipodi:role="line">Axis.SideOffset</tspan><tspan
         id="tspan180"
         style="stroke-width:0.129082"
         y="120.52733"
         x="52.294357"
         sodipodi:role="line">Renliy.VisionBiasiz</tspan></text>
    <text
       xml:space="preserve"
       style="font-size:4.13062px;line-height:1.25;font-family:sans-serif;stroke-width:0.129082"
       x="80.991219"
       y="23.187559"
       id="text141-1"><tspan
         sodipodi:role="line"
         id="tspan139-3"
         x="80.991219"
         y="23.187559"
         style="stroke-width:0.129082">Axis.Center.Aute(Side)Inside</tspan><tspan
         id="tspan163"
         sodipodi:role="line"
         x="80.991219"
         y="28.350834"
         style="stroke-width:0.129082">Tsc.Pushed.Caeilf.Rotate</tspan><tspan
         id="tspan161"
         sodipodi:role="line"
         x="80.991219"
         y="33.514111"
         style="stroke-width:0.129082">Tricylce.Color</tspan></text>
    <path
       id="path59-7"
       d="m 56.761408,125.9792 15.63915,3.89535 v 16.33166 L 56.761408,142.282 Z"
       style="fill:#f2f2f2;stroke:#000000;stroke-width:0.605946px;stroke-linecap:butt;stroke-linejoin:miter;stroke-miterlimit:8;stroke-dasharray:none;stroke-opacity:1" />
  </g>
</svg>
