<?xml version="1.0" encoding="UTF-8" standalone="no"?>
<svg
   xmlns:dc="http://purl.org/dc/elements/1.1/"
   xmlns:cc="http://creativecommons.org/ns#"
   xmlns:rdf="http://www.w3.org/1999/02/22-rdf-syntax-ns#"
   xmlns:svg="http://www.w3.org/2000/svg"
   xmlns="http://www.w3.org/2000/svg"
   xmlns:sodipodi="http://sodipodi.sourceforge.net/DTD/sodipodi-0.dtd"
   xmlns:inkscape="http://www.inkscape.org/namespaces/inkscape"
   sodipodi:docname="shapeable.svg"
   inkscape:version="1.0 (4035a4fb49, 2020-05-01)"
   id="svg8"
   version="1.1"
   viewBox="0 0 210 297"
   height="297mm"
   width="210mm">
  <defs
     id="defs2">
    <rect
       x="199.3216"
       y="202.2051"
       width="43.252427"
       height="66.680825"
       id="rect1116" />
    <rect
       x="-41.089806"
       y="188.86893"
       width="352.86772"
       height="146.33738"
       id="rect1039" />
    <pattern
       id="EMFhbasepattern"
       patternUnits="userSpaceOnUse"
       width="6"
       height="6"
       x="0"
       y="0" />
    <clipPath
       clipPathUnits="userSpaceOnUse"
       id="clipEmfPath1">
      <path
         d="M 0,0 L 46.014488,0 L 46.014488,43.013543 L 0,43.013543 z"
         id="path98" />
    </clipPath>
    <pattern
       id="EMFhbasepattern-7"
       patternUnits="userSpaceOnUse"
       width="6"
       height="6"
       x="0"
       y="0" />
  </defs>
  <sodipodi:namedview
     inkscape:window-maximized="1"
     inkscape:window-y="-8"
     inkscape:window-x="-8"
     inkscape:window-height="1057"
     inkscape:window-width="1857"
     showgrid="false"
     inkscape:document-rotation="0"
     inkscape:current-layer="layer1"
     inkscape:document-units="mm"
     inkscape:cy="487.84226"
     inkscape:cx="449.137"
     inkscape:zoom="1.2153798"
     inkscape:pageshadow="2"
     inkscape:pageopacity="0.0"
     borderopacity="1.0"
     bordercolor="#666666"
     pagecolor="#ffffff"
     id="base" />
  <metadata
     id="metadata5">
    <rdf:RDF>
      <cc:Work
         rdf:about="">
        <dc:format>image/svg+xml</dc:format>
        <dc:type
           rdf:resource="http://purl.org/dc/dcmitype/StillImage" />
        <dc:title />
      </cc:Work>
    </rdf:RDF>
  </metadata>
  <g
     id="layer1"
     inkscape:groupmode="layer"
     inkscape:label="图层 1">
    <path
       id="path69"
       d="m 52.455665,261.62544 1.214666,-11.82658 1.218333,11.82658 -0.466049,19.15822 h -1.50457 z"
       style="fill:#b3b3b3;stroke:#000000;stroke-width:0.2;stroke-linecap:butt;stroke-linejoin:miter;stroke-miterlimit:4.0625;stroke-dasharray:none;stroke-opacity:1" />
    <path
       style="fill:#f2f2f2;fill-opacity:1;fill-rule:evenodd;stroke:#000000;stroke-width:0.2;stroke-miterlimit:4.0625;stroke-dasharray:none"
       d="m 51.019539,278.20498 v 2.5111 h 2.592093 v -2.5111 z"
       id="path1082" />
    <path
       id="path1084"
       d="m 49.712807,278.20894 v 2.5111 h 2.5921 v -2.5111 z"
       style="fill:#b3b3b3;fill-opacity:1;fill-rule:evenodd;stroke:#000000;stroke-width:0.2;stroke-miterlimit:4.0625;stroke-dasharray:none" />
    <path
       style="fill:#f2f2f2;fill-opacity:1;fill-rule:evenodd;stroke:#000000;stroke-width:0.2;stroke-miterlimit:4.0625;stroke-dasharray:none"
       d="m 53.611632,278.20498 v 2.5111 h 2.5921 v -2.5111 z"
       id="path1086" />
    <path
       style="fill:#b3b3b3;fill-opacity:1;fill-rule:evenodd;stroke:#000000;stroke-width:0.2;stroke-miterlimit:4.0625;stroke-dasharray:none"
       d="m 55.140873,278.20995 v 2.5111 h 2.592099 v -2.5111 z"
       id="path1088" />
    <path
       id="path1090"
       d="m 52.312498,283.31463 v 2.51109 h 2.5921 v -2.51109 z"
       style="fill:#b3b3b3;fill-opacity:1;fill-rule:evenodd;stroke:#000000;stroke-width:0.2;stroke-miterlimit:4.0625;stroke-dasharray:none" />
    <path
       style="fill:#b3b3b3;fill-opacity:1;fill-rule:evenodd;stroke:#000000;stroke-width:0.2;stroke-miterlimit:4.0625;stroke-dasharray:none"
       d="m 52.448598,275.61658 v 2.51109 h 2.592099 v -2.51109 z"
       id="path1092" />
    <path
       id="path1094"
       d="m 52.312498,280.80353 v 2.5111 h 2.5921 v -2.5111 z"
       style="fill:#b3b3b3;fill-opacity:1;fill-rule:evenodd;stroke:#000000;stroke-width:0.2;stroke-miterlimit:4.0625;stroke-dasharray:none" />
    <path
       id="path111"
       d="m 75.554375,219.96349 v 3.47212 h 3.584106 v -3.47212 z"
       style="fill:#f2f2f2;fill-opacity:1;fill-rule:evenodd;stroke:#000000;stroke-width:0.0951849" />
    <path
       style="fill:#cccccc;fill-opacity:1;fill-rule:nonzero;stroke:#666666;stroke-width:0.264583"
       d="m 22.579273,19.216938 2.490667,-1.459375 v 0.272417 l -2.490667,-1.439917 v 0 l -0.03892,-0.03892 -0.03892,-0.05837 v -0.03892 -0.05837 l 0.03892,-0.03892 0.03892,-0.03892 0.03892,-0.01946 h 0.05838 l 0.05837,0.01946 v 0 l 2.724166,1.576125 -2.724166,1.595583 v 0 l -0.05837,0.01946 h -0.05838 l -0.03892,-0.01946 -0.03892,-0.03892 -0.03892,-0.03892 v -0.05837 -0.05837 l 0.03892,-0.03892 z M 7.4796071,17.738105 H 25.147773 v 0 0.311333 0 H 7.4796071 v 0 z"
       id="path13" />
    <path
       style="fill:none;fill-opacity:1;fill-rule:nonzero;stroke:#000000;stroke-width:0.264583"
       d="m 28.338945,16.5706 -2.490667,1.459375 v -0.272417 l 2.490667,1.459375 v 0 l 0.03892,0.03892 0.01946,0.03892 0.01946,0.05837 -0.01946,0.03892 -0.01946,0.05837 -0.03892,0.03892 -0.05837,0.01946 h -0.05838 l -0.03892,-0.01946 v 0 l -2.724166,-1.595585 2.724166,-1.595583 v 0 l 0.03892,-0.01946 h 0.05838 l 0.05837,0.01946 0.03892,0.03892 0.01946,0.05837 0.01946,0.03892 -0.01946,0.05837 -0.01946,0.03892 z m 11.733375,2.646333 2.490666,-1.459375 v 0.272417 L 40.07232,16.5706 v 0 l -0.03892,-0.03892 -0.01946,-0.03892 -0.01946,-0.05837 0.01946,-0.03892 0.01946,-0.05838 0.03892,-0.03892 0.05838,-0.01946 h 0.05837 l 0.03892,0.01946 v 0 l 2.724167,1.595583 -2.724167,1.595583 v 0 l -0.03892,0.01946 H 40.1307 l -0.05838,-0.01946 -0.03892,-0.03892 -0.01946,-0.05837 -0.01946,-0.03892 0.01946,-0.05837 0.01946,-0.03892 z M 25.770445,17.7381 H 42.64082 v 0 0.311333 0 H 25.770445 v 0 z"
       id="path15" />
    <path
       style="fill:#b3b3b3;fill-opacity:1;fill-rule:evenodd;stroke:#000000;stroke-width:0.450141"
       d="M 86.787234,89.003586 V 105.42359 H 103.73692 V 89.003586 Z"
       id="path17" />
    <path
       style="fill:none;stroke:#000000;stroke-width:0.408625px;stroke-linecap:butt;stroke-linejoin:miter;stroke-miterlimit:8;stroke-dasharray:none;stroke-opacity:1"
       d="m 45.997046,78.723075 c 0,-0.97291 0.797792,-1.77071 1.770707,-1.77071 h 7.02446 c 0.972915,0 1.751248,0.7978 1.751248,1.77071 v 7.02446 c 0,0.97292 -0.778333,1.75125 -1.751248,1.75125 h -7.02446 c -0.972915,0 -1.770707,-0.77833 -1.770707,-1.75125 z"
       id="path23" />
    <path
       style="fill:none;stroke:#000000;stroke-width:0.408625px;stroke-linecap:butt;stroke-linejoin:miter;stroke-miterlimit:8;stroke-dasharray:none;stroke-opacity:1"
       d="m 15.391861,76.994815 h 8.775708 l 1.770709,1.75125 v 8.79516 H 15.391861 Z"
       id="path27" />
    <path
       style="fill:#ffd5d5;stroke:#000000;stroke-width:0.65876px;stroke-linecap:butt;stroke-linejoin:miter;stroke-miterlimit:8;stroke-dasharray:none;stroke-opacity:1"
       d="M 56.355074,54.30077 67.522628,43.101844 78.721555,54.30077 67.522628,65.499681 Z"
       id="path35" />
    <path
       style="fill:none;stroke:#000000;stroke-width:0.398373px;stroke-linecap:butt;stroke-linejoin:miter;stroke-miterlimit:8;stroke-dasharray:none;stroke-opacity:1"
       d="m 152.39733,103.09142 6.44071,-5.011928 6.46016,5.011928 -2.47121,8.11895 h -7.97791 z"
       id="path39" />
    <path
       style="fill:none;stroke:#000000;stroke-width:0.408625px;stroke-linecap:butt;stroke-linejoin:miter;stroke-miterlimit:8;stroke-dasharray:none;stroke-opacity:1"
       d="m 152.68585,121.40167 2.99658,-5.99316 h 6.94662 l 2.97713,5.99316 -2.97713,5.99317 h -6.94662 z"
       id="path43" />
    <path
       style="fill:#b3b3b3;stroke:#000000;stroke-width:0.684796px;stroke-linecap:butt;stroke-linejoin:miter;stroke-miterlimit:8;stroke-dasharray:none;stroke-opacity:1"
       d="m 114.07331,61.245996 11.40688,-19.814401 11.40687,19.814401 z"
       id="path47" />
    <path
       style="fill:#f9f9f9;stroke:#000000;stroke-width:0.424175px;stroke-linecap:butt;stroke-linejoin:miter;stroke-miterlimit:8;stroke-dasharray:none;stroke-opacity:1"
       d="m 116.96792,77.273831 2.23259,-11.103881 h 7.805 l 2.25074,11.103881 z"
       id="path55" />
    <path
       style="fill:#b3b3b3;stroke:#000000;stroke-width:0.605945px;stroke-linecap:butt;stroke-linejoin:miter;stroke-miterlimit:8;stroke-dasharray:none;stroke-opacity:1"
       d="M 26.834041,109.85264 30.7294,94.213483 h 16.33166 l -3.924214,15.639157 z"
       id="path59" />
    <path
       style="fill:none;stroke:#000000;stroke-width:0.408625px;stroke-linecap:butt;stroke-linejoin:miter;stroke-miterlimit:8;stroke-dasharray:none;stroke-opacity:1"
       d="m 165.10026,139.82541 -6.46017,5.29266 -6.44071,-5.29266 2.45176,-8.54221 h 7.97791 z"
       id="path63" />
    <path
       style="fill:none;fill-opacity:1;fill-rule:evenodd;stroke:#000000;stroke-width:0.251101"
       d="m 30.209943,76.860719 h 8.808859 l 1.666541,1.590022 v 9.01012 h -9.046936 l -1.428464,-1.590022 z"
       id="path104" />
    <path
       id="path39-9"
       d="m 177.88537,114.91333 5.27319,6.44071 -5.27319,6.46016 -8.54222,-2.47121 v -7.97791 z"
       style="fill:none;stroke:#000000;stroke-width:0.408625px;stroke-linecap:butt;stroke-linejoin:miter;stroke-miterlimit:8;stroke-dasharray:none;stroke-opacity:1" />
    <path
       id="path63-3"
       d="m 141.56757,128.08699 -5.29265,-6.46017 5.29265,-6.44071 8.5422,2.45176 v 7.97791 z"
       style="fill:none;stroke:#000000;stroke-width:0.408625px;stroke-linecap:butt;stroke-linejoin:miter;stroke-miterlimit:8;stroke-dasharray:none;stroke-opacity:1" />
    <text
       id="text141"
       y="118.03454"
       x="10.58091"
       style="font-size:4.13062px;line-height:1.25;font-family:sans-serif;stroke-width:0.129082"
       xml:space="preserve"><tspan
         style="stroke-width:0.129082"
         y="118.03454"
         x="10.58091"
         id="tspan139"
         sodipodi:role="line">Axis.SideOffset</tspan><tspan
         id="tspan180"
         style="stroke-width:0.129082"
         y="123.19781"
         x="10.58091"
         sodipodi:role="line">Renliy.VisionBiasiz</tspan><tspan
         id="tspan326"
         style="stroke-width:0.129082"
         y="128.36108"
         x="10.58091"
         sodipodi:role="line">Side.Rotate-O-Directly^Attach</tspan></text>
    <text
       xml:space="preserve"
       style="font-size:4.13062px;line-height:1.25;font-family:sans-serif;stroke-width:0.129082"
       x="117.92711"
       y="7.9597969"
       id="text141-1"><tspan
         sodipodi:role="line"
         id="tspan139-3"
         x="117.92711"
         y="7.9597969"
         style="stroke-width:0.129082">Axis.Center.Aute(Side)Inside</tspan><tspan
         id="tspan163"
         sodipodi:role="line"
         x="117.92711"
         y="13.123074"
         style="stroke-width:0.129082">Tsc.Pushed.Caeilful.Rotate</tspan><tspan
         id="tspan161"
         sodipodi:role="line"
         x="117.92711"
         y="18.286346"
         style="stroke-width:0.129082">Tricylce.Color</tspan></text>
    <path
       id="path59-7"
       d="m 27.028938,136.81109 15.63915,3.89535 v 16.33166 l -15.63915,-3.92421 z"
       style="fill:#ffaaaa;stroke:#000000;stroke-width:0.605946px;stroke-linecap:butt;stroke-linejoin:miter;stroke-miterlimit:8;stroke-dasharray:none;stroke-opacity:1" />
    <path
       id="path201"
       d="M 157.62809,52.450098 V 41.297705 L 146.4757,52.450098 Z"
       style="fill:none;stroke:#000000;stroke-width:0.365938px;stroke-linecap:butt;stroke-linejoin:miter;stroke-miterlimit:8;stroke-dasharray:none;stroke-opacity:1" />
    <path
       style="fill:none;stroke:#000000;stroke-width:0.365938px;stroke-linecap:butt;stroke-linejoin:miter;stroke-miterlimit:8;stroke-dasharray:none;stroke-opacity:1"
       d="M 157.62809,52.450098 V 41.297706 l 11.15238,11.152392 z"
       id="path203" />
    <path
       style="fill:none;stroke:#000000;stroke-width:0.365938px;stroke-linecap:butt;stroke-linejoin:miter;stroke-miterlimit:8;stroke-dasharray:none;stroke-opacity:1"
       d="M 157.62809,52.450098 V 63.602491 L 146.4757,52.450098 Z"
       id="path205" />
    <path
       id="path207"
       d="M 157.62809,52.450098 V 63.60249 l 11.15238,-11.152392 z"
       style="fill:none;stroke:#000000;stroke-width:0.365938px;stroke-linecap:butt;stroke-linejoin:miter;stroke-miterlimit:8;stroke-dasharray:none;stroke-opacity:1" />
    <path
       id="path47-6"
       d="m 129.92167,32.911873 10.68633,10.61432 10.68634,-10.61432 z"
       style="fill:#ffffff;stroke:#000000;stroke-width:0.485119px;stroke-linecap:butt;stroke-linejoin:miter;stroke-miterlimit:8;stroke-dasharray:none;stroke-opacity:1" />
    <path
       style="fill:#ffffff;stroke:#000000;stroke-width:0.485119px;stroke-linecap:butt;stroke-linejoin:miter;stroke-miterlimit:8;stroke-dasharray:none;stroke-opacity:1"
       d="m 129.92167,32.911873 10.68634,-10.614321 10.68633,10.614321 z"
       id="path224" />
    <text
       id="text228"
       y="31.716476"
       x="7.9949255"
       style="font-size:4.59618px;line-height:1.25;font-family:sans-serif;stroke-width:0.14363"
       xml:space="preserve"><tspan
         style="stroke-width:0.14363"
         y="31.716476"
         x="7.9949255"
         id="tspan226"
         sodipodi:role="line">Axis.Side(Aute-O-Yein)Zenter.</tspan><tspan
         id="tspan230"
         style="stroke-width:0.14363"
         y="37.4617"
         x="7.9949255"
         sodipodi:role="line">Atowards.MetricFirst)</tspan></text>
    <path
       id="path55-3"
       d="m 117.21368,81.433382 2.2326,11.10389 h 7.80499 l 2.25074,-11.10389 z"
       style="fill:#f9f9f9;stroke:#000000;stroke-width:0.424176px;stroke-linecap:butt;stroke-linejoin:miter;stroke-miterlimit:8;stroke-dasharray:none;stroke-opacity:1" />
    <path
       style="fill:#f9f9f9;stroke:#000000;stroke-width:0.424176px;stroke-linecap:butt;stroke-linejoin:miter;stroke-miterlimit:8;stroke-dasharray:none;stroke-opacity:1"
       d="m 115.31201,73.125642 -9.60516,2.580958 v 9.022832 l 9.60516,2.60194 z"
       id="path55-3-0" />
    <path
       id="path262"
       d="m 131.50671,73.255883 9.60516,2.580959 v 9.02284 l -9.60516,2.60193 z"
       style="fill:#f9f9f9;stroke:#000000;stroke-width:0.424176px;stroke-linecap:butt;stroke-linejoin:miter;stroke-miterlimit:8;stroke-dasharray:none;stroke-opacity:1" />
    <path
       id="path264"
       d="m 96.727922,77.890801 4.285798,-0.01162 -0.17369,0.401904 -2.437291,-4.266008 v 0 l -0.0276,-0.09083 -0.01514,-0.119677 0.02477,-0.05737 0.03726,-0.0861 0.07725,-0.02395 0.07724,-0.02395 0.06486,0.0048 0.07866,0.05015 0.0662,0.07898 v 0 l 2.664991,4.667767 -4.687192,0.01175 v 0 l -0.09105,-0.02146 -0.07866,-0.05014 -0.03998,-0.06215 -0.0276,-0.09083 -0.0276,-0.09083 0.03726,-0.0861 0.03726,-0.0861 0.07725,-0.02395 z M 77.328997,62.725609 101.13098,77.917431 v 0 l -0.1985,0.459337 v 0 L 77.130497,63.184945 v 0 z"
       style="fill:none;fill-opacity:1;fill-rule:nonzero;stroke:#000000;stroke-width:0.421329" />
    <path
       style="fill:#00ff00;stroke:#000000;stroke-width:0.380355px;stroke-linecap:butt;stroke-linejoin:miter;stroke-miterlimit:8;stroke-dasharray:none;stroke-opacity:1"
       d="m 148.17468,84.250582 4.29839,-6.624243 7.69069,1.86039 0.43644,7.790603 -7.41406,2.94597 z"
       id="path39-9-1" />
    <path
       style="fill:#ffaaaa;stroke:#000000;stroke-width:0.605946px;stroke-linecap:butt;stroke-linejoin:miter;stroke-miterlimit:8;stroke-dasharray:none;stroke-opacity:1"
       d="m 26.413275,157.73547 3.89535,15.63915 h 16.33166 l -3.92421,-15.63915 z"
       id="path59-7-6" />
    <path
       id="path304"
       d="m 27.028938,153.11389 0.03194,4.52484"
       style="fill:none;stroke:#000000;stroke-width:0.264583px;stroke-linecap:butt;stroke-linejoin:miter;stroke-opacity:1" />
    <path
       id="path310"
       d="m 27.060879,157.63873 15.655194,0.0967 -15.687135,-4.62158 v 0"
       style="fill:none;stroke:#000000;stroke-width:0.264583px;stroke-linecap:butt;stroke-linejoin:miter;stroke-opacity:1" />
    <path
       style="fill:none;stroke:#000000;stroke-width:0.206108px;stroke-linecap:butt;stroke-linejoin:miter;stroke-opacity:1"
       d="m 64.734442,165.18444 0.02488,3.52482"
       id="path312" />
    <path
       style="fill:none;stroke:#000000;stroke-width:0.206108px;stroke-linecap:butt;stroke-linejoin:miter;stroke-opacity:1"
       d="m 64.759323,168.70926 12.195298,0.0753 -12.22018,-3.60019 v 0"
       id="path314" />
    <path
       id="path316"
       d="m 64.002077,168.65043 0.732364,-3.46603"
       style="fill:none;stroke:#000000;stroke-width:0.164546px;stroke-linecap:butt;stroke-linejoin:miter;stroke-opacity:1" />
    <path
       style="fill:#f9f9f9;stroke:#000000;stroke-width:0.226655px;stroke-linecap:butt;stroke-linejoin:miter;stroke-miterlimit:8;stroke-dasharray:none;stroke-opacity:1"
       d="m 92.085584,154.11807 5.84986,1.45707 v 6.10889 l -5.84986,-1.46785 z"
       id="path318" />
    <path
       id="path320"
       d="m 92.085584,160.21618 -0.10664,6.02763 5.90074,1.5811 0.0962,-6.03043 z"
       style="fill:#f9f9f9;stroke:#000000;stroke-width:0.226655px;stroke-linecap:butt;stroke-linejoin:miter;stroke-miterlimit:8;stroke-dasharray:none;stroke-opacity:1" />
    <path
       style="fill:#f9f9f9;stroke:#000000;stroke-width:0.226655px;stroke-linecap:butt;stroke-linejoin:miter;stroke-miterlimit:8;stroke-dasharray:none;stroke-opacity:1"
       d="m 98.042074,155.65638 -0.10663,6.02765 5.900736,1.5811 0.0962,-6.03045 z"
       id="path328" />
    <path
       id="path330"
       d="m 86.195264,152.53977 -0.10664,6.02765 5.90075,1.5811 0.0962,-6.03045 z"
       style="fill:#f9f9f9;stroke:#000000;stroke-width:0.226655px;stroke-linecap:butt;stroke-linejoin:miter;stroke-miterlimit:8;stroke-dasharray:none;stroke-opacity:1" />
    <path
       style="fill:#f9f9f9;stroke:#000000;stroke-width:0.226655px;stroke-linecap:butt;stroke-linejoin:miter;stroke-miterlimit:8;stroke-dasharray:none;stroke-opacity:1"
       d="m 92.192224,148.09042 -0.10664,6.02765 5.90074,1.5811 0.0962,-6.03045 z"
       id="path332" />
    <path
       style="fill:#cccccc;stroke:#000000;stroke-width:0.226655px;stroke-linecap:butt;stroke-linejoin:miter;stroke-miterlimit:8;stroke-dasharray:none;stroke-opacity:1"
       d="m 91.904774,161.22151 0.90097,5.96089 6.08187,0.57399 -0.91172,-5.96191 z"
       id="path334" />
    <path
       id="path71"
       d="m 13.162003,226.21877 v 6.04755 h 6.242633 v -6.04755 z"
       style="fill:#b3b3b3;fill-opacity:1;fill-rule:evenodd;stroke:#000000;stroke-width:0.257446;stroke-miterlimit:4.5;stroke-dasharray:none" />
    <path
       style="fill:#b3b3b3;fill-opacity:1;fill-rule:evenodd;stroke:#000000;stroke-width:0.257446;stroke-miterlimit:4.5;stroke-dasharray:none"
       d="m 19.404636,226.21877 v 6.04755 h 6.242633 v -6.04755 z"
       id="path71-0" />
    <path
       style="fill:#b3b3b3;fill-opacity:1;fill-rule:evenodd;stroke:#000000;stroke-width:0.257446;stroke-miterlimit:4.5;stroke-dasharray:none"
       d="m 31.889899,226.21877 v 6.04755 h 6.242635 v -6.04755 z"
       id="path71-07" />
    <path
       style="fill:#b3b3b3;fill-opacity:1;fill-rule:evenodd;stroke:#000000;stroke-width:0.257446;stroke-miterlimit:4.5;stroke-dasharray:none"
       d="m 38.132534,226.21877 v 6.04755 h 6.242634 v -6.04755 z"
       id="path71-05" />
    <path
       id="path100"
       d="m 25.647269,238.31386 v 6.04755 h 6.24263 v -6.04755 z"
       style="fill:#b3b3b3;fill-opacity:1;fill-rule:evenodd;stroke:#000000;stroke-width:0.257446;stroke-miterlimit:4.5;stroke-dasharray:none" />
    <path
       style="fill:#b3b3b3;fill-opacity:1;fill-rule:evenodd;stroke:#000000;stroke-width:0.257446;stroke-miterlimit:4.5;stroke-dasharray:none"
       d="m 25.647269,220.17122 v 6.04755 h 6.24263 v -6.04755 z"
       id="path102" />
    <path
       id="path105"
       d="m 25.647269,232.26632 v 6.04754 h 6.24263 v -6.04754 z"
       style="fill:#b3b3b3;fill-opacity:1;fill-rule:evenodd;stroke:#000000;stroke-width:0.257446;stroke-miterlimit:4.5;stroke-dasharray:none" />
    <path
       style="fill:none;stroke:#000000;stroke-width:0.238916;stroke-linecap:butt;stroke-linejoin:miter;stroke-miterlimit:8;stroke-dasharray:none;stroke-opacity:1"
       d="m 71.120225,219.8209 8.140766,-8.91843 8.16539,8.91843 -3.12352,14.44721 H 74.219135 Z"
       id="path107" />
    <path
       style="fill:#b3b3b3;fill-opacity:1;fill-rule:evenodd;stroke:#000000;stroke-width:0.0951849"
       d="m 73.747535,219.96895 v 3.47212 h 3.584126 v -3.47212 z"
       id="path109" />
    <path
       id="path113"
       d="m 79.138481,219.96349 v 3.47212 h 3.58411 v -3.47212 z"
       style="fill:#f2f2f2;fill-opacity:1;fill-rule:evenodd;stroke:#000000;stroke-width:0.0951849" />
    <path
       id="path115"
       d="m 81.252971,219.97036 v 3.47212 h 3.58413 v -3.47212 z"
       style="fill:#b3b3b3;fill-opacity:1;fill-rule:evenodd;stroke:#000000;stroke-width:0.0951849" />
    <path
       style="fill:#b3b3b3;fill-opacity:1;fill-rule:evenodd;stroke:#000000;stroke-width:0.0951849"
       d="m 77.342141,227.02863 v 3.47212 h 3.58413 v -3.47212 z"
       id="path117" />
    <path
       id="path119"
       d="m 77.530341,216.38447 v 3.47211 h 3.58412 v -3.47211 z"
       style="fill:#b3b3b3;fill-opacity:1;fill-rule:evenodd;stroke:#000000;stroke-width:0.0951849" />
    <path
       style="fill:#b3b3b3;fill-opacity:1;fill-rule:evenodd;stroke:#000000;stroke-width:0.0951849"
       d="m 77.342141,223.55651 v 3.47212 h 3.58413 v -3.47212 z"
       id="path121" />
    <path
       style="fill:#f2f2f2;stroke:#000000;stroke-width:0.311391px;stroke-linecap:butt;stroke-linejoin:miter;stroke-miterlimit:8;stroke-dasharray:none;stroke-opacity:1"
       d="m 84.557563,118.40519 2.01995,6.61412 h 7.06158 l 2.03635,-6.61412 z"
       id="path55-3-7" />
    <path
       id="path224-1"
       d="m 84.718953,118.40519 5.47825,-5.93172 5.47824,5.93172 z"
       style="fill:#f2f2f2;stroke:#000000;stroke-width:0.259656px;stroke-linecap:butt;stroke-linejoin:miter;stroke-miterlimit:8;stroke-dasharray:none;stroke-opacity:1" />
    <path
       id="path168"
       d="m 25.647269,226.21877 v 6.04755 h 6.24263 v -6.04755 z"
       style="fill:#b3b3b3;fill-opacity:1;fill-rule:evenodd;stroke:#000000;stroke-width:0.257446;stroke-miterlimit:4.5;stroke-dasharray:none" />
    <path
       id="path170"
       d="m 53.735388,219.8209 8.67932,-8.76704 8.705517,8.76704 -3.330127,14.20197 H 57.039295 Z"
       style="fill:none;stroke:#000000;stroke-width:0.203824;stroke-linecap:butt;stroke-linejoin:miter;stroke-miterlimit:4.5;stroke-dasharray:none;stroke-opacity:1" />
    <path
       style="fill:#b3b3b3;fill-opacity:1;fill-rule:evenodd;stroke:#000000;stroke-width:0.257446;stroke-miterlimit:4.5;stroke-dasharray:none"
       d="m 56.029194,220.26692 v 3.95281 h 4.080328 v -3.95281 z"
       id="path174" />
    <path
       style="fill:#b3b3b3;fill-opacity:1;fill-rule:evenodd;stroke:#000000;stroke-width:0.257446;stroke-miterlimit:4.5;stroke-dasharray:none"
       d="m 64.189851,220.26692 v 3.95281 h 4.080328 v -3.95281 z"
       id="path176" />
    <path
       id="path180"
       d="m 60.109522,228.17255 v 3.95281 h 4.080329 v -3.95281 z"
       style="fill:#b3b3b3;fill-opacity:1;fill-rule:evenodd;stroke:#000000;stroke-width:0.257446;stroke-miterlimit:4.5;stroke-dasharray:none" />
    <path
       style="fill:#b3b3b3;fill-opacity:1;fill-rule:evenodd;stroke:#000000;stroke-width:0.257446;stroke-miterlimit:4.5;stroke-dasharray:none"
       d="m 60.109522,216.3141 v 3.95282 h 4.080329 v -3.95282 z"
       id="path182" />
    <path
       id="path184"
       d="m 60.109522,224.21973 v 3.95282 h 4.080329 v -3.95282 z"
       style="fill:#b3b3b3;fill-opacity:1;fill-rule:evenodd;stroke:#000000;stroke-width:0.257446;stroke-miterlimit:4.5;stroke-dasharray:none" />
    <path
       id="path186"
       d="m 60.109522,220.26692 v 3.95281 h 4.080329 v -3.95281 z"
       style="fill:#cccccc;fill-opacity:1;fill-rule:evenodd;stroke:#000000;stroke-width:0.257446;stroke-miterlimit:4.5;stroke-dasharray:none" />
    <path
       style="fill:#f9f9f9;stroke:#000000;stroke-width:0.243734;stroke-linecap:butt;stroke-linejoin:miter;stroke-miterlimit:8;stroke-dasharray:none;stroke-opacity:1"
       d="m 101.40074,222.70328 -0.94823,3.30392 3.01646,1.74155 0.9429,-3.30701 z"
       id="path190" />
    <path
       id="path192"
       d="m 105.35412,221.071 -0.94823,3.30395 3.01645,1.74155 0.94291,-3.30703 z"
       style="fill:#f9f9f9;stroke:#000000;stroke-width:0.243734;stroke-linecap:butt;stroke-linejoin:miter;stroke-miterlimit:8;stroke-dasharray:none;stroke-opacity:1" />
    <path
       style="fill:#f9f9f9;stroke:#000000;stroke-width:0.243734;stroke-linecap:butt;stroke-linejoin:miter;stroke-miterlimit:8;stroke-dasharray:none;stroke-opacity:1"
       d="m 99.289511,217.60632 -0.94824,3.30395 3.016469,1.74154 0.9429,-3.30703 z"
       id="path194" />
    <path
       id="path196"
       d="m 103.24889,216.04086 -0.94825,3.30392 3.01646,1.74157 0.9429,-3.30703 z"
       style="fill:#f9f9f9;stroke:#000000;stroke-width:0.243734;stroke-linecap:butt;stroke-linejoin:miter;stroke-miterlimit:8;stroke-dasharray:none;stroke-opacity:1" />
    <path
       id="path198"
       d="m 99.267011,229.84428 -0.38345,3.41587 3.264829,1.21363 0.37768,-3.41802 z"
       style="fill:#cccccc;stroke:#000000;stroke-width:0.243734;stroke-linecap:butt;stroke-linejoin:miter;stroke-miterlimit:8;stroke-dasharray:none;stroke-opacity:1" />
    <path
       id="path200"
       d="m 100.45785,226.01028 -0.948239,3.30394 3.016459,1.74154 0.9429,-3.30701 z"
       style="fill:#f9f9f9;stroke:#000000;stroke-width:0.243734;stroke-linecap:butt;stroke-linejoin:miter;stroke-miterlimit:8;stroke-dasharray:none;stroke-opacity:1" />
    <text
       xml:space="preserve"
       style="font-size:4.66879px;line-height:1.25;font-family:sans-serif;stroke-width:0.145899"
       x="9.9132423"
       y="188.57028"
       id="text206"><tspan
         sodipodi:role="line"
         id="tspan204"
         x="9.9132423"
         y="188.57028"
         style="stroke-width:0.145899">Diamond(SideAttached,FustionFormed)</tspan><tspan
         sodipodi:role="line"
         x="9.9132423"
         y="194.40627"
         style="stroke-width:0.145899"
         id="tspan208">UnderOpen Beautyless(Ruined Rulered Embed)</tspan><tspan
         sodipodi:role="line"
         x="9.9132423"
         y="200.24226"
         style="stroke-width:0.145899"
         id="tspan1043">Me-Cha-Y-Nic du Do Ruassa //软傻 美铠腻扣 毒 </tspan><tspan
         sodipodi:role="line"
         x="9.9132423"
         y="206.19583"
         style="stroke-width:0.145899"
         id="tspan1045">Mei-Kan-Ni-Kou</tspan></text>
    <path
       id="path1033"
       d="m 76.605214,260.6583 3.573157,-11.61571 h 12.49144 l 3.60218,11.61571 z"
       style="fill:#f9f9f9;stroke:#000000;stroke-width:0.141051;stroke-linecap:butt;stroke-linejoin:miter;stroke-miterlimit:8;stroke-dasharray:none;stroke-opacity:1" />
    <path
       style="fill:#f9f9f9;stroke:#000000;stroke-width:0.141051;stroke-linecap:butt;stroke-linejoin:miter;stroke-miterlimit:8;stroke-dasharray:none;stroke-opacity:1"
       d="m 76.605214,260.6583 3.573147,15.60612 h 12.49145 l 3.60218,-15.60612 z"
       id="path1035" />
    <text
       xml:space="preserve"
       id="text1037"
       style="line-height:1.25;font-family:sans-serif;font-size:8.46666667px;white-space:pre;shape-inside:url(#rect1039);" />
    <text
       xml:space="preserve"
       style="font-size:3.76566px;line-height:1.25;font-family:sans-serif;stroke-width:0.117676"
       x="73.437531"
       y="279.73853"
       id="text1049"
       transform="scale(1.0951195,0.91314236)"><tspan
         sodipodi:role="line"
         id="tspan1047"
         x="73.437531"
         y="279.73853"
         style="stroke-width:0.117676">Venus</tspan></text>
    <text
       id="text1049-3"
       y="292.45721"
       x="72.964775"
       style="font-size:2.12571px;line-height:1.25;font-family:sans-serif;stroke-width:0.0664283"
       xml:space="preserve"
       transform="scale(1.0951195,0.91314236)"><tspan
         style="stroke-width:0.0664283"
         y="292.45721"
         x="72.964775"
         id="tspan1047-6"
         sodipodi:role="line">Airea/Shan\</tspan><tspan
         style="stroke-width:0.0664283"
         y="295.11435"
         x="72.964775"
         sodipodi:role="line"
         id="tspan1073">Gaetub</tspan></text>
    <text
       xml:space="preserve"
       style="font-size:4.42852px;line-height:1.25;font-family:sans-serif;stroke-width:0.138391"
       x="74.528381"
       y="286.86887"
       id="text1071"
       transform="scale(1.0951195,0.91314236)"><tspan
         sodipodi:role="line"
         id="tspan1069"
         x="74.528381"
         y="286.86887"
         style="stroke-width:0.138391">Oni</tspan></text>
    <path
       style="fill:none;stroke:#800000;stroke-width:0.264583px;stroke-linecap:butt;stroke-linejoin:miter;stroke-opacity:1"
       d="m 53.67033,249.79886 -0.0587,28.40611"
       id="path1096" />
    <path
       style="fill:#000000;stroke-width:0.0624895"
       d="m 52.243771,260.59554 c -2.72455,-0.34261 -5.30361,-1.72488 -7.00845,-3.75626 -1.37011,-1.63252 -2.16899,-3.39813 -2.50389,-5.53386 -0.14659,-0.93477 -0.0982,-2.83753 0.095,-3.73952 0.30927,-1.44354 0.98904,-3.01249 1.79969,-4.1538 0.51387,-0.72347 1.73869,-1.96683 2.43488,-2.47174 1.51755,-1.1006 3.34185,-1.81966 5.15316,-2.03115 0.99353,-0.116 2.57737,-0.0484 3.48685,0.14885 2.14763,0.46575 3.97019,1.45747 5.51959,3.00339 1.43215,1.42892 2.49061,3.36156 2.912,5.31698 0.37952,1.76116 0.31867,3.67366 -0.171,5.3741 -0.54215,1.88269 -1.52089,3.4951 -2.95865,4.87419 -1.60217,1.53679 -3.42764,2.46155 -5.68868,2.88182 -0.60587,0.11262 -2.45102,0.1649 -3.0705,0.087 z m 3.09175,-0.99662 c 2.68328,-0.53152 4.97596,-2.07074 6.51473,-4.37375 0.19362,-0.28977 0.33041,-0.54772 0.30399,-0.57322 -0.0264,-0.0255 -0.91977,-0.3702 -1.98522,-0.766 -1.06545,-0.3958 -2.88605,-1.07285 -4.04577,-1.50455 -1.15972,-0.43171 -2.15321,-0.78492 -2.20774,-0.78492 -0.0836,0 -1.41558,0.50406 -4.24475,1.60638 -2.29462,0.89405 -4.22386,1.64031 -4.42114,1.71018 -0.12888,0.0456 -0.23433,0.099 -0.23433,0.1185 0,0.13385 1.10606,1.46487 1.64444,1.97889 1.58236,1.51077 3.53191,2.42644 5.77151,2.71077 0.64145,0.0814 2.20906,0.0154 2.90428,-0.12228 z m -8.71465,-5.99045 c 0.85258,-0.71498 2.43593,-2.03906 3.51856,-2.94241 1.08264,-0.90334 1.98939,-1.70329 2.01502,-1.77765 0.0256,-0.0744 0.20142,-1.0913 0.39067,-2.25986 0.18924,-1.16855 0.51275,-3.15013 0.7189,-4.40351 0.20616,-1.25337 0.37483,-2.32897 0.37483,-2.39023 0,-0.095 -0.0576,-0.11136 -0.3922,-0.11136 -1.42527,0 -3.26876,0.5079 -4.5881,1.26406 -2.83725,1.62611 -4.71773,4.42669 -5.08703,7.57603 -0.10203,0.87002 -0.0409,2.33466 0.13156,3.15408 0.1723,0.8185 0.49049,1.73823 0.85431,2.4694 0.29485,0.59259 0.37735,0.72141 0.46202,0.72141 0.0282,0 0.74888,-0.58498 1.60146,-1.29996 z m 1.58932,0.058 c 1.4907,-0.57996 3.3501,-1.30227 4.132,-1.60514 l 1.42164,-0.55066 -0.007,-0.47265 c -0.004,-0.25995 -0.0251,-0.64511 -0.0469,-0.8559 l -0.0396,-0.38326 -1.84344,1.09639 c -1.01389,0.60302 -2.82766,1.68099 -4.03058,2.39549 -2.3858,1.41711 -2.39245,1.42117 -2.33543,1.42652 0.0215,0.002 1.25885,-0.47083 2.74955,-1.05079 z m 13.85923,0.7722 c -0.0521,-0.0521 -1.59707,-1.30077 -3.43319,-2.77474 l -3.3384,-2.67995 -0.59975,0.32203 c -1.02326,0.54941 -1.09723,0.38523 0.60927,1.35226 0.81798,0.46352 2.68234,1.52418 4.14304,2.35701 1.46069,0.83283 2.66886,1.51513 2.68482,1.51621 0.016,0.001 -0.0136,-0.0407 -0.0658,-0.0928 z m 0.69534,-0.95851 c 1.27437,-3.17638 0.86157,-6.73543 -1.10273,-9.50744 -0.50626,-0.71443 -1.68185,-1.89779 -2.36877,-2.38442 -1.01225,-0.71711 -2.23333,-1.27583 -3.46315,-1.58461 -0.56006,-0.14062 -1.97316,-0.33196 -2.02983,-0.27485 -0.0141,0.0142 0.056,0.51794 0.15584,1.1194 0.0998,0.60147 0.43487,2.64019 0.74459,4.5305 0.51084,3.11787 0.57615,3.44789 0.7036,3.55506 0.12268,0.10316 4.78471,3.85585 6.3234,5.09001 l 0.55886,0.44825 0.10951,-0.17295 c 0.0602,-0.0951 0.22613,-0.46365 0.36868,-0.81895 z m -9.00586,-8.6482 c -0.003,-2.65503 -0.0162,-4.79921 -0.0299,-4.76484 -0.0137,0.0344 -0.34736,2.0307 -0.74136,4.43629 -0.65843,4.02015 -0.7078,4.37887 -0.61058,4.43664 0.58727,0.34897 1.2457,0.70758 1.3087,0.71278 0.0619,0.005 0.0771,-0.99483 0.0732,-4.82087 z"
       id="path1112" />
    <text
       xml:space="preserve"
       id="text1114"
       style="line-height:1.25;font-family:sans-serif;font-size:8.46666667px;white-space:pre;shape-inside:url(#rect1116);" />
    <path
       style="fill:none;stroke:#000000;stroke-width:0.208008px;stroke-linecap:butt;stroke-linejoin:miter;stroke-opacity:1"
       d="m 102.30064,219.34478 -0.8999,3.3585"
       id="path1120" />
    <path
       style="fill:none;stroke:#ff0000;stroke-width:0.0846066px;stroke-linecap:butt;stroke-linejoin:miter;stroke-opacity:1"
       d="m 102.92784,219.76631 v 3.70756"
       id="path1122" />
    <path
       id="path1124"
       d="m 94.372271,220.70719 8.170899,-8.95143 8.19559,8.95143 -3.13508,14.50065 H 97.482651 Z"
       style="fill:none;stroke:#000000;stroke-width:0.2398;stroke-linecap:butt;stroke-linejoin:miter;stroke-miterlimit:8;stroke-dasharray:none;stroke-opacity:1" />
    <path
       style="fill:none;stroke:#800000;stroke-width:0.0890146;stroke-linecap:butt;stroke-linejoin:miter;stroke-miterlimit:4;stroke-dasharray:none;stroke-opacity:1"
       d="m 102.54317,211.75576 -0.39478,22.71802"
       id="path1126" />
    <path
       style="fill:#808080;stroke:#b3b3b3;stroke-width:0.264583px;stroke-linecap:butt;stroke-linejoin:miter;stroke-opacity:1"
       d="m 86.438711,249.03992 v 27.25804"
       id="path1128" />
    <path
       id="path1210"
       d="m 117.34893,220.20655 3.89536,-15.63916 h 16.33166 l -3.92422,15.63916 z"
       style="fill:#b3b3b3;stroke:#000000;stroke-width:0.605945px;stroke-linecap:butt;stroke-linejoin:miter;stroke-miterlimit:8;stroke-dasharray:none;stroke-opacity:1" />
    <path
       style="fill:none;stroke:#000000;stroke-width:0.264583px;stroke-linecap:butt;stroke-linejoin:miter;stroke-opacity:1"
       d="m 119.58783,211.83283 h 15.85922"
       id="path1212" />
    <path
       style="fill:none;stroke:#000000;stroke-width:0.264583px;stroke-linecap:butt;stroke-linejoin:miter;stroke-opacity:1"
       d="m 127.56617,204.40702 v 15.85922 l -0.36044,0.18022"
       id="path1214" />
    <path
       style="fill:#b3b3b3;stroke:#000000;stroke-width:0.605945px;stroke-linecap:butt;stroke-linejoin:miter;stroke-miterlimit:8;stroke-dasharray:none;stroke-opacity:1"
       d="m 147.11491,223.65158 -6.09607,-14.91962 13.17712,-9.64813 6.07279,14.93667 z"
       id="path1216" />
    <path
       id="path1218"
       d="m 142.78076,210.81336 h 15.85922"
       style="fill:none;stroke:#000000;stroke-width:0.264583px;stroke-linecap:butt;stroke-linejoin:miter;stroke-opacity:1" />
    <path
       id="path1220"
       d="m 150.7591,203.38755 v 15.85922 l -0.36044,0.18022"
       style="fill:none;stroke:#000000;stroke-width:0.264583px;stroke-linecap:butt;stroke-linejoin:miter;stroke-opacity:1" />
    <path
       id="path1940"
       d="M 60.576791,109.62465 64.47215,93.985492 h 16.33166 l -3.924214,15.639158 z"
       style="fill:#b3b3b3;stroke:#000000;stroke-width:0.605945px;stroke-linecap:butt;stroke-linejoin:miter;stroke-miterlimit:8;stroke-dasharray:none;stroke-opacity:1" />
    <path
       id="path1942"
       d="M 64.47215,93.985492 76.879595,109.62465"
       style="fill:none;stroke:#000000;stroke-width:0.264583px;stroke-linecap:butt;stroke-linejoin:miter;stroke-opacity:1" />
    <path
       id="path1944"
       d="m 67.949592,18.988946 2.490667,-1.459375 v 0.272417 l -2.490667,-1.439917 v 0 l -0.03892,-0.03892 -0.03892,-0.05837 v -0.03892 -0.05837 l 0.03892,-0.03892 0.03892,-0.03892 0.03892,-0.01946 h 0.05838 l 0.05837,0.01946 v 0 l 2.724166,1.576125 -2.724166,1.595583 v 0 l -0.05837,0.01946 h -0.05838 l -0.03892,-0.01946 -0.03892,-0.03892 -0.03892,-0.03892 v -0.05837 -0.05837 l 0.03892,-0.03892 z M 52.849926,17.510113 h 17.668166 v 0 0.311333 0 H 52.849926 v 0 z"
       style="fill:#cccccc;fill-opacity:1;fill-rule:nonzero;stroke:#666666;stroke-width:0.26499999;stroke-miterlimit:4;stroke-dasharray:1.05999995,0.26499999;stroke-dashoffset:0" />
    <path
       id="path1946"
       d="m 73.709264,16.342608 -2.490667,1.459375 v -0.272417 l 2.490667,1.459375 v 0 l 0.03892,0.03892 0.01946,0.03892 0.01946,0.05837 -0.01946,0.03892 -0.01946,0.05837 -0.03892,0.03892 -0.05837,0.01946 h -0.05838 l -0.03892,-0.01946 v 0 l -2.724166,-1.595585 2.724166,-1.595583 v 0 l 0.03892,-0.01946 h 0.05838 l 0.05837,0.01946 0.03892,0.03892 0.01946,0.05837 0.01946,0.03892 -0.01946,0.05837 -0.01946,0.03892 z m 11.733375,2.646333 2.490666,-1.459375 v 0.272417 l -2.490666,-1.459375 v 0 l -0.03892,-0.03892 -0.01946,-0.03892 -0.01946,-0.05837 0.01946,-0.03892 0.01946,-0.05838 0.03892,-0.03892 0.05838,-0.01946 h 0.05837 l 0.03892,0.01946 v 0 l 2.724167,1.595583 -2.724167,1.595583 v 0 l -0.03892,0.01946 h -0.05837 l -0.05838,-0.01946 -0.03892,-0.03892 -0.01946,-0.05837 -0.01946,-0.03892 0.01946,-0.05837 0.01946,-0.03892 z M 71.140764,17.510108 h 16.870375 v 0 0.311333 0 H 71.140764 v 0 z"
       style="fill:none;fill-opacity:1;fill-rule:nonzero;stroke:#000000;stroke-width:0.26499999;stroke-miterlimit:4;stroke-dasharray:1.05999995,0.26499999;stroke-dashoffset:0" />
    <path
       id="path39-7"
       d="m 236.77358,139.80179 3.53149,-2.89135 3.54216,2.89135 -1.35498,4.68376 h -4.37436 z"
       style="fill:#00ff66;stroke:#000000;stroke-width:0.224053px;stroke-linecap:butt;stroke-linejoin:miter;stroke-miterlimit:8;stroke-dasharray:none;stroke-opacity:1" />
    <path
       id="path43-8"
       d="m 236.93178,150.07353 1.64305,-3.2861 h 3.80889 l 1.63238,3.2861 -1.63238,3.2861 h -3.80889 z"
       style="fill:#00ff66;stroke:#000000;stroke-width:0.224053px;stroke-linecap:butt;stroke-linejoin:miter;stroke-miterlimit:8;stroke-dasharray:none;stroke-opacity:1" />
    <path
       id="path63-6"
       d="m 243.7387,160.17542 -3.54217,2.90201 -3.53149,-2.90201 1.34432,-4.68377 h 4.37436 z"
       style="fill:#00ff66;stroke:#000000;stroke-width:0.224053px;stroke-linecap:butt;stroke-linejoin:miter;stroke-miterlimit:8;stroke-dasharray:none;stroke-opacity:1" />
    <path
       style="fill:#00ff66;stroke:#000000;stroke-width:0.224053px;stroke-linecap:butt;stroke-linejoin:miter;stroke-miterlimit:8;stroke-dasharray:none;stroke-opacity:1"
       d="m 250.74888,146.51592 2.89134,3.53149 -2.89134,3.54216 -4.68377,-1.35498 v -4.37436 z"
       id="path39-9-0" />
    <path
       style="fill:#00ff66;stroke:#000000;stroke-width:0.224053px;stroke-linecap:butt;stroke-linejoin:miter;stroke-miterlimit:8;stroke-dasharray:none;stroke-opacity:1"
       d="m 230.83553,153.73914 -2.90201,-3.54216 2.90201,-3.5315 4.68376,1.34432 v 4.37436 z"
       id="path63-3-7" />
    <path
       style="fill:#00ff66;stroke:#000000;stroke-width:0.224053px;stroke-linecap:butt;stroke-linejoin:miter;stroke-miterlimit:8;stroke-dasharray:none;stroke-opacity:1"
       d="m 245.15602,139.94928 4.54164,0.45265 0.4602,4.54918 -4.27005,2.3538 -3.09313,-3.09313 z"
       id="path1064" />
    <path
       style="fill:#00ff66;stroke:#000000;stroke-width:0.224053px;stroke-linecap:butt;stroke-linejoin:miter;stroke-miterlimit:8;stroke-dasharray:none;stroke-opacity:1"
       d="m 237.44089,148.05909 3.06597,-2.02432 3.2986,1.90444 -0.22936,3.66204 -3.05674,2.02966 -3.29859,-1.90444 z"
       id="path1066" />
    <path
       style="fill:#00ff66;stroke:#000000;stroke-width:0.224053px;stroke-linecap:butt;stroke-linejoin:miter;stroke-miterlimit:8;stroke-dasharray:none;stroke-opacity:1"
       d="m 235.67478,159.28069 -4.55672,-0.45265 -0.44512,-4.54918 4.2625,-2.36134 3.09314,3.09313 z"
       id="path1068" />
    <path
       id="path1070"
       d="m 250.29045,154.57891 -0.45266,4.54163 -4.54916,0.4602 -2.35382,-4.27004 3.09314,-3.09314 z"
       style="fill:#00ff66;stroke:#000000;stroke-width:0.224053px;stroke-linecap:butt;stroke-linejoin:miter;stroke-miterlimit:8;stroke-dasharray:none;stroke-opacity:1" />
    <path
       id="path1072"
       d="m 231.10199,145.60564 0.45266,-4.55672 4.54917,-0.44511 2.36134,4.2625 -3.09313,3.09313 z"
       style="fill:#00ff66;stroke:#000000;stroke-width:0.224053px;stroke-linecap:butt;stroke-linejoin:miter;stroke-miterlimit:8;stroke-dasharray:none;stroke-opacity:1" />
    <text
       id="text147"
       y="69.357079"
       x="165.90945"
       style="font-size:3.52777px;line-height:1.25;font-family:sans-serif;stroke-width:0.264583"
       xml:space="preserve"><tspan
         style="stroke-width:0.264583"
         y="69.357079"
         x="165.90945"
         id="tspan145"
         sodipodi:role="line">正五边形 视觉偏差 </tspan><tspan
         id="tspan149"
         style="stroke-width:0.264583"
         y="73.855637"
         x="165.90945"
         sodipodi:role="line">  视觉</tspan><tspan
         id="tspan157"
         style="stroke-width:0.264583"
         y="78.354202"
         x="165.90945"
         sodipodi:role="line">  视力偏差</tspan><tspan
         id="tspan153"
         style="stroke-width:0.264583"
         y="82.85276"
         x="165.90945"
         sodipodi:role="line">  时差</tspan><tspan
         id="tspan155"
         style="stroke-width:0.264583"
         y="87.351326"
         x="165.90945"
         sodipodi:role="line">  察觉</tspan><tspan
         id="tspan159"
         style="stroke-width:0.264583"
         y="91.849884"
         x="165.90945"
         sodipodi:role="line">?钝角组合梯形是正五边形</tspan><tspan
         id="tspan151"
         style="stroke-width:0.264583"
         y="96.348442"
         x="165.90945"
         sodipodi:role="line">亚子角</tspan></text>
    <path
       style="fill:#b3b3b3;stroke:#000000;stroke-width:0.366879px;stroke-linecap:butt;stroke-linejoin:miter;stroke-miterlimit:8;stroke-dasharray:none;stroke-opacity:1"
       d="m 91.713623,39.114945 6.111232,10.615559 6.111225,-10.615559 z"
       id="path3141" />
    <path
       style="fill:#b3b3b3;stroke:#000000;stroke-width:0.366879px;stroke-linecap:butt;stroke-linejoin:miter;stroke-miterlimit:8;stroke-dasharray:none;stroke-opacity:1"
       d="m 91.713623,39.114945 6.111232,-10.61556 6.111225,10.61556 z"
       id="path3143" />
    <path
       style="fill:#e6e6e6;stroke:#000000;stroke-width:0.41872px;stroke-linecap:butt;stroke-linejoin:miter;stroke-miterlimit:8;stroke-dasharray:none;stroke-opacity:1"
       d="m 86.884642,97.25374 3.027356,-7.979525 h 10.583442 l 3.05199,7.979525 z"
       id="path155" />
    <text
       id="text160"
       y="71.62429"
       x="56.306854"
       style="font-size:3.52777px;line-height:1.25;font-family:sans-serif;stroke-width:0.264583"
       xml:space="preserve"><tspan
         style="stroke-width:0.264583"
         y="71.62429"
         x="56.306854"
         id="tspan158"
         sodipodi:role="line">Duplikr.Inside</tspan></text>
    <path
       style="fill:#e6e6e6;stroke:#000000;stroke-width:0.41872px;stroke-linecap:butt;stroke-linejoin:miter;stroke-miterlimit:8;stroke-dasharray:none;stroke-opacity:1"
       d="m 86.884642,97.25374 3.027356,7.97952 h 10.583442 l 3.05199,-7.97952 z"
       id="path162" />
    <path
       style="fill:none;fill-opacity:1;fill-rule:nonzero;stroke:#000000;stroke-width:0.338751"
       d="m 136.08113,147.59439 -3.31369,1.00757 0.22852,0.26614 0.88149,-3.84018 v 0 -0.076 l -0.0164,-0.0951 -0.0326,-0.038 -0.049,-0.057 h -0.0653 -0.0653 l -0.049,0.019 -0.049,0.057 -0.0326,0.0761 v 0 l -0.96309,4.2014 3.62384,-1.10263 v 0 l 0.0653,-0.038 0.049,-0.057 0.0163,-0.057 v -0.076 -0.076 l -0.049,-0.057 -0.049,-0.057 h -0.0653 z m 11.42658,-16.19725 -14.8219,17.26185 v 0 l 0.26118,0.30417 v 0 l 14.8219,-17.26185 v 0 z"
       id="path982" />
    <path
       id="path984"
       d="m 122.92818,160.46258 v 7.36967 h 25.74957 v -7.36967 z"
       style="fill:none;fill-opacity:1;fill-rule:evenodd;stroke:#000000;stroke-width:0.371697" />
    <path
       id="path986"
       d="m 122.99542,160.42728 4.6656,-8.34954 h 16.31061 l 4.70358,8.34954 z"
       style="fill:none;stroke:#000000;stroke-width:0.531727px;stroke-linecap:butt;stroke-linejoin:miter;stroke-miterlimit:8;stroke-dasharray:none;stroke-opacity:1" />
    <path
       id="path988"
       d="m 122.9423,167.83883 4.67316,8.34767 h 16.33698 l 4.71118,-8.34767 z"
       style="fill:none;stroke:#000000;stroke-width:0.532097px;stroke-linecap:butt;stroke-linejoin:miter;stroke-miterlimit:8;stroke-dasharray:none;stroke-opacity:1" />
    <text
       id="text992"
       y="117.10439"
       x="97.581726"
       style="font-size:4.7865px;line-height:1.25;font-family:sans-serif;stroke-width:0.149578"
       xml:space="preserve"><tspan
         style="stroke-width:0.149578"
         y="117.10439"
         x="97.581726"
         id="tspan990"
         sodipodi:role="line">边.塌陷于延展</tspan><tspan
         id="tspan994"
         style="stroke-width:0.149578"
         y="123.20806"
         x="97.581726"
         sodipodi:role="line">角.顿开个数</tspan></text>
    <path
       id="path996"
       d="m 21.098475,63.297223 -0.02218,-15.815489 15.837674,-1e-6 -1.2e-5,15.837663 z"
       style="fill:#e6e6e6;stroke:#000000;stroke-width:0.65876px;stroke-linecap:butt;stroke-linejoin:miter;stroke-miterlimit:8;stroke-dasharray:none;stroke-opacity:1" />
  </g>
</svg>
