<?xml version="1.0" encoding="UTF-8" standalone="no"?>
<svg
   xmlns:dc="http://purl.org/dc/elements/1.1/"
   xmlns:cc="http://creativecommons.org/ns#"
   xmlns:rdf="http://www.w3.org/1999/02/22-rdf-syntax-ns#"
   xmlns:svg="http://www.w3.org/2000/svg"
   xmlns="http://www.w3.org/2000/svg"
   xmlns:sodipodi="http://sodipodi.sourceforge.net/DTD/sodipodi-0.dtd"
   xmlns:inkscape="http://www.inkscape.org/namespaces/inkscape"
   width="210mm"
   height="297mm"
   viewBox="0 0 210 297"
   version="1.1"
   id="svg8"
   inkscape:version="1.0.1 (3bc2e813f5, 2020-09-07)"
   sodipodi:docname="shapeable.svg">
  <defs
     id="defs2">
    <rect
       id="rect1116"
       height="66.680825"
       width="43.252427"
       y="202.2051"
       x="199.3216" />
    <rect
       id="rect1039"
       height="146.33738"
       width="352.86772"
       y="188.86893"
       x="-41.089806" />
    <pattern
       y="0"
       x="0"
       height="6"
       width="6"
       patternUnits="userSpaceOnUse"
       id="EMFhbasepattern" />
    <clipPath
       id="clipEmfPath1"
       clipPathUnits="userSpaceOnUse">
      <path
         id="path98"
         d="M 0,0 L 46.014488,0 L 46.014488,43.013543 L 0,43.013543 z" />
    </clipPath>
    <pattern
       y="0"
       x="0"
       height="6"
       width="6"
       patternUnits="userSpaceOnUse"
       id="EMFhbasepattern-7" />
  </defs>
  <sodipodi:namedview
     id="base"
     pagecolor="#ffffff"
     bordercolor="#666666"
     borderopacity="1.0"
     inkscape:pageopacity="0.0"
     inkscape:pageshadow="2"
     inkscape:zoom="4.3488707"
     inkscape:cx="376.61145"
     inkscape:cy="294.20915"
     inkscape:document-units="mm"
     inkscape:current-layer="layer1"
     inkscape:document-rotation="0"
     showgrid="false"
     inkscape:window-width="1758"
     inkscape:window-height="1009"
     inkscape:window-x="132"
     inkscape:window-y="132"
     inkscape:window-maximized="0" />
  <metadata
     id="metadata5">
    <rdf:RDF>
      <cc:Work
         rdf:about="">
        <dc:format>image/svg+xml</dc:format>
        <dc:type
           rdf:resource="http://purl.org/dc/dcmitype/StillImage" />
        <dc:title />
      </cc:Work>
    </rdf:RDF>
  </metadata>
  <g
     inkscape:label="图层 1"
     inkscape:groupmode="layer"
     id="layer1">
    <path
       style="fill:#b3b3b3;stroke:#000000;stroke-width:0.2;stroke-linecap:butt;stroke-linejoin:miter;stroke-miterlimit:4.0625;stroke-dasharray:none;stroke-opacity:1"
       d="m 75.545814,256.39167 1.214666,-11.82658 1.218333,11.82658 -0.466049,19.15822 h -1.50457 z"
       id="path69" />
    <path
       id="path1082"
       d="m 74.109688,272.97121 v 2.5111 h 2.592093 v -2.5111 z"
       style="fill:#f2f2f2;fill-opacity:1;fill-rule:evenodd;stroke:#000000;stroke-width:0.2;stroke-miterlimit:4.0625;stroke-dasharray:none" />
    <path
       style="fill:#b3b3b3;fill-opacity:1;fill-rule:evenodd;stroke:#000000;stroke-width:0.2;stroke-miterlimit:4.0625;stroke-dasharray:none"
       d="m 72.802956,272.97517 v 2.5111 h 2.5921 v -2.5111 z"
       id="path1084" />
    <path
       id="path1086"
       d="m 76.701781,272.97121 v 2.5111 h 2.5921 v -2.5111 z"
       style="fill:#f2f2f2;fill-opacity:1;fill-rule:evenodd;stroke:#000000;stroke-width:0.2;stroke-miterlimit:4.0625;stroke-dasharray:none" />
    <path
       id="path1088"
       d="m 78.231022,272.97618 v 2.5111 h 2.592099 v -2.5111 z"
       style="fill:#b3b3b3;fill-opacity:1;fill-rule:evenodd;stroke:#000000;stroke-width:0.2;stroke-miterlimit:4.0625;stroke-dasharray:none" />
    <path
       style="fill:#b3b3b3;fill-opacity:1;fill-rule:evenodd;stroke:#000000;stroke-width:0.2;stroke-miterlimit:4.0625;stroke-dasharray:none"
       d="m 75.402647,278.08086 v 2.51109 h 2.5921 v -2.51109 z"
       id="path1090" />
    <path
       id="path1092"
       d="m 75.538747,270.38281 v 2.51109 h 2.592099 v -2.51109 z"
       style="fill:#b3b3b3;fill-opacity:1;fill-rule:evenodd;stroke:#000000;stroke-width:0.2;stroke-miterlimit:4.0625;stroke-dasharray:none" />
    <path
       style="fill:#b3b3b3;fill-opacity:1;fill-rule:evenodd;stroke:#000000;stroke-width:0.2;stroke-miterlimit:4.0625;stroke-dasharray:none"
       d="m 75.402647,275.56976 v 2.5111 h 2.5921 v -2.5111 z"
       id="path1094" />
    <path
       style="fill:#f2f2f2;fill-opacity:1;fill-rule:evenodd;stroke:#000000;stroke-width:0.0951849"
       d="m 98.644524,214.72972 v 3.47212 h 3.584106 v -3.47212 z"
       id="path111" />
    <path
       id="path13"
       d="m 22.579273,19.216938 2.490667,-1.459375 v 0.272417 l -2.490667,-1.439917 v 0 l -0.03892,-0.03892 -0.03892,-0.05837 v -0.03892 -0.05837 l 0.03892,-0.03892 0.03892,-0.03892 0.03892,-0.01946 h 0.05838 l 0.05837,0.01946 v 0 l 2.724166,1.576125 -2.724166,1.595583 v 0 l -0.05837,0.01946 h -0.05838 l -0.03892,-0.01946 -0.03892,-0.03892 -0.03892,-0.03892 v -0.05837 -0.05837 l 0.03892,-0.03892 z M 7.4796071,17.738105 H 25.147773 v 0 0.311333 0 H 7.4796071 v 0 z"
       style="fill:#cccccc;fill-opacity:1;fill-rule:nonzero;stroke:#666666;stroke-width:0.264583" />
    <path
       id="path15"
       d="m 28.338945,16.5706 -2.490667,1.459375 v -0.272417 l 2.490667,1.459375 v 0 l 0.03892,0.03892 0.01946,0.03892 0.01946,0.05837 -0.01946,0.03892 -0.01946,0.05837 -0.03892,0.03892 -0.05837,0.01946 h -0.05838 l -0.03892,-0.01946 v 0 l -2.724166,-1.595585 2.724166,-1.595583 v 0 l 0.03892,-0.01946 h 0.05838 l 0.05837,0.01946 0.03892,0.03892 0.01946,0.05837 0.01946,0.03892 -0.01946,0.05837 -0.01946,0.03892 z m 11.733375,2.646333 2.490666,-1.459375 v 0.272417 L 40.07232,16.5706 v 0 l -0.03892,-0.03892 -0.01946,-0.03892 -0.01946,-0.05837 0.01946,-0.03892 0.01946,-0.05838 0.03892,-0.03892 0.05838,-0.01946 h 0.05837 l 0.03892,0.01946 v 0 l 2.724167,1.595583 -2.724167,1.595583 v 0 l -0.03892,0.01946 H 40.1307 l -0.05838,-0.01946 -0.03892,-0.03892 -0.01946,-0.05837 -0.01946,-0.03892 0.01946,-0.05837 0.01946,-0.03892 z M 25.770445,17.7381 H 42.64082 v 0 0.311333 0 H 25.770445 v 0 z"
       style="fill:none;fill-opacity:1;fill-rule:nonzero;stroke:#000000;stroke-width:0.264583" />
    <path
       id="path17"
       d="M 28.357032,57.066273 V 73.486275 H 45.306718 V 57.066273 Z"
       style="fill:#b3b3b3;fill-opacity:1;fill-rule:evenodd;stroke:#000000;stroke-width:0.450141" />
    <path
       id="path23"
       d="m 45.997046,78.723075 c 0,-0.97291 0.797792,-1.77071 1.770707,-1.77071 h 7.02446 c 0.972915,0 1.751248,0.7978 1.751248,1.77071 v 7.02446 c 0,0.97292 -0.778333,1.75125 -1.751248,1.75125 h -7.02446 c -0.972915,0 -1.770707,-0.77833 -1.770707,-1.75125 z"
       style="fill:none;stroke:#000000;stroke-width:0.408625px;stroke-linecap:butt;stroke-linejoin:miter;stroke-miterlimit:8;stroke-dasharray:none;stroke-opacity:1" />
    <path
       id="path27"
       d="m 15.391861,76.994815 h 8.775708 l 1.770709,1.75125 v 8.79516 H 15.391861 Z"
       style="fill:none;stroke:#000000;stroke-width:0.408625px;stroke-linecap:butt;stroke-linejoin:miter;stroke-miterlimit:8;stroke-dasharray:none;stroke-opacity:1" />
    <path
       id="path35"
       d="M 56.355074,54.30077 67.522628,43.101844 78.721555,54.30077 67.522628,65.499681 Z"
       style="fill:#ffd5d5;stroke:#000000;stroke-width:0.65876px;stroke-linecap:butt;stroke-linejoin:miter;stroke-miterlimit:8;stroke-dasharray:none;stroke-opacity:1" />
    <path
       id="path39"
       d="m 150.57214,122.19504 6.44071,-5.01193 6.46016,5.01193 -2.47121,8.11895 h -7.97791 z"
       style="fill:none;stroke:#000000;stroke-width:0.398373px;stroke-linecap:butt;stroke-linejoin:miter;stroke-miterlimit:8;stroke-dasharray:none;stroke-opacity:1" />
    <path
       id="path43"
       d="m 150.86066,140.50529 2.99658,-5.99316 h 6.94662 l 2.97713,5.99316 -2.97713,5.99317 h -6.94662 z"
       style="fill:none;stroke:#000000;stroke-width:0.408625px;stroke-linecap:butt;stroke-linejoin:miter;stroke-miterlimit:8;stroke-dasharray:none;stroke-opacity:1" />
    <path
       id="path47"
       d="M 112.24812,80.349614 123.655,60.535213 135.06187,80.349614 Z"
       style="fill:#b3b3b3;stroke:#000000;stroke-width:0.684796px;stroke-linecap:butt;stroke-linejoin:miter;stroke-miterlimit:8;stroke-dasharray:none;stroke-opacity:1" />
    <path
       id="path55"
       d="m 115.14273,96.377449 2.23259,-11.103881 h 7.805 l 2.25074,11.103881 z"
       style="fill:#f9f9f9;stroke:#000000;stroke-width:0.424175px;stroke-linecap:butt;stroke-linejoin:miter;stroke-miterlimit:8;stroke-dasharray:none;stroke-opacity:1" />
    <path
       id="path59"
       d="M 26.834041,109.85264 30.7294,94.213483 h 16.33166 l -3.924214,15.639157 z"
       style="fill:#b3b3b3;stroke:#000000;stroke-width:0.605945px;stroke-linecap:butt;stroke-linejoin:miter;stroke-miterlimit:8;stroke-dasharray:none;stroke-opacity:1" />
    <path
       id="path63"
       d="m 163.27507,158.92903 -6.46017,5.29266 -6.44071,-5.29266 2.45176,-8.54221 h 7.97791 z"
       style="fill:none;stroke:#000000;stroke-width:0.408625px;stroke-linecap:butt;stroke-linejoin:miter;stroke-miterlimit:8;stroke-dasharray:none;stroke-opacity:1" />
    <path
       id="path104"
       d="m 30.209943,76.860719 h 8.808859 l 1.666541,1.590022 v 9.01012 h -9.046936 l -1.428464,-1.590022 z"
       style="fill:none;fill-opacity:1;fill-rule:evenodd;stroke:#000000;stroke-width:0.251101" />
    <path
       style="fill:none;stroke:#000000;stroke-width:0.408625px;stroke-linecap:butt;stroke-linejoin:miter;stroke-miterlimit:8;stroke-dasharray:none;stroke-opacity:1"
       d="m 176.06018,134.01695 5.27319,6.44071 -5.27319,6.46016 -8.54222,-2.47121 v -7.97791 z"
       id="path39-9" />
    <path
       style="fill:none;stroke:#000000;stroke-width:0.408625px;stroke-linecap:butt;stroke-linejoin:miter;stroke-miterlimit:8;stroke-dasharray:none;stroke-opacity:1"
       d="m 139.74238,147.19061 -5.29265,-6.46017 5.29265,-6.44071 8.5422,2.45176 v 7.97791 z"
       id="path63-3" />
    <text
       xml:space="preserve"
       style="font-size:4.13062px;line-height:1.25;font-family:sans-serif;stroke-width:0.129082"
       x="20.680275"
       y="116.20935"
       id="text141"><tspan
         sodipodi:role="line"
         id="tspan139"
         x="20.680275"
         y="116.20935"
         style="stroke-width:0.129082">Axis.SideOffset</tspan><tspan
         sodipodi:role="line"
         x="20.680275"
         y="121.37263"
         style="stroke-width:0.129082"
         id="tspan180">Renliy.VisionBiasiz</tspan><tspan
         sodipodi:role="line"
         x="20.680275"
         y="126.5359"
         style="stroke-width:0.129082"
         id="tspan326">Side.Rotate-O-Directly^Attach</tspan></text>
    <text
       id="text141-1"
       y="27.063416"
       x="116.10192"
       style="font-size:4.13062px;line-height:1.25;font-family:sans-serif;stroke-width:0.129082"
       xml:space="preserve"><tspan
         style="stroke-width:0.129082"
         y="27.063416"
         x="116.10192"
         id="tspan139-3"
         sodipodi:role="line">Axis.Center.Aute(Side)Inside</tspan><tspan
         style="stroke-width:0.129082"
         y="32.226692"
         x="116.10192"
         sodipodi:role="line"
         id="tspan163">Tsc.Pushed.Caeilful.Rotate</tspan><tspan
         style="stroke-width:0.129082"
         y="37.389969"
         x="116.10192"
         sodipodi:role="line"
         id="tspan161">Tricylce.Color</tspan></text>
    <path
       style="fill:#ffaaaa;stroke:#000000;stroke-width:0.605946px;stroke-linecap:butt;stroke-linejoin:miter;stroke-miterlimit:8;stroke-dasharray:none;stroke-opacity:1"
       d="m 27.028938,136.81109 15.63915,3.89535 v 16.33166 l -15.63915,-3.92421 z"
       id="path59-7" />
    <path
       style="fill:none;stroke:#000000;stroke-width:0.365938px;stroke-linecap:butt;stroke-linejoin:miter;stroke-miterlimit:8;stroke-dasharray:none;stroke-opacity:1"
       d="M 155.8029,71.553716 V 60.401323 l -11.15239,11.152393 z"
       id="path201" />
    <path
       id="path203"
       d="M 155.8029,71.553716 V 60.401324 l 11.15238,11.152392 z"
       style="fill:none;stroke:#000000;stroke-width:0.365938px;stroke-linecap:butt;stroke-linejoin:miter;stroke-miterlimit:8;stroke-dasharray:none;stroke-opacity:1" />
    <path
       id="path205"
       d="M 155.8029,71.553716 V 82.706109 L 144.65051,71.553716 Z"
       style="fill:none;stroke:#000000;stroke-width:0.365938px;stroke-linecap:butt;stroke-linejoin:miter;stroke-miterlimit:8;stroke-dasharray:none;stroke-opacity:1" />
    <path
       style="fill:none;stroke:#000000;stroke-width:0.365938px;stroke-linecap:butt;stroke-linejoin:miter;stroke-miterlimit:8;stroke-dasharray:none;stroke-opacity:1"
       d="M 155.8029,71.553716 V 82.706108 L 166.95528,71.553716 Z"
       id="path207" />
    <path
       style="fill:#ffffff;stroke:#000000;stroke-width:0.485119px;stroke-linecap:butt;stroke-linejoin:miter;stroke-miterlimit:8;stroke-dasharray:none;stroke-opacity:1"
       d="m 128.09648,52.015491 10.68633,10.61432 10.68634,-10.61432 z"
       id="path47-6" />
    <path
       id="path224"
       d="M 128.09648,52.015491 138.78282,41.40117 149.46915,52.015491 Z"
       style="fill:#ffffff;stroke:#000000;stroke-width:0.485119px;stroke-linecap:butt;stroke-linejoin:miter;stroke-miterlimit:8;stroke-dasharray:none;stroke-opacity:1" />
    <text
       xml:space="preserve"
       style="font-size:4.59618px;line-height:1.25;font-family:sans-serif;stroke-width:0.14363"
       x="7.9949255"
       y="31.716476"
       id="text228"><tspan
         sodipodi:role="line"
         id="tspan226"
         x="7.9949255"
         y="31.716476"
         style="stroke-width:0.14363">Axis.Side(Aute-O-Yein)Zenter.</tspan><tspan
         sodipodi:role="line"
         x="7.9949255"
         y="37.4617"
         style="stroke-width:0.14363"
         id="tspan230">Atowards.MetricFirst)</tspan></text>
    <path
       style="fill:#f9f9f9;stroke:#000000;stroke-width:0.424176px;stroke-linecap:butt;stroke-linejoin:miter;stroke-miterlimit:8;stroke-dasharray:none;stroke-opacity:1"
       d="m 115.38849,100.537 2.2326,11.10389 h 7.80499 l 2.25074,-11.10389 z"
       id="path55-3" />
    <path
       id="path55-3-0"
       d="m 113.48682,92.22926 -9.60516,2.580958 v 9.022832 l 9.60516,2.60194 z"
       style="fill:#f9f9f9;stroke:#000000;stroke-width:0.424176px;stroke-linecap:butt;stroke-linejoin:miter;stroke-miterlimit:8;stroke-dasharray:none;stroke-opacity:1" />
    <path
       style="fill:#f9f9f9;stroke:#000000;stroke-width:0.424176px;stroke-linecap:butt;stroke-linejoin:miter;stroke-miterlimit:8;stroke-dasharray:none;stroke-opacity:1"
       d="m 129.68152,92.359501 9.60516,2.580959 v 9.02284 l -9.60516,2.60193 z"
       id="path262" />
    <path
       style="fill:none;fill-opacity:1;fill-rule:nonzero;stroke:#000000;stroke-width:0.338751"
       d="m 143.10325,128.2914 3.31369,1.00757 -0.22852,0.26614 -0.88149,-3.84018 v 0 -0.076 l 0.0164,-0.0951 0.0326,-0.038 0.049,-0.057 h 0.0653 0.0653 l 0.049,0.019 0.049,0.057 0.0326,0.0761 v 0 l 0.96309,4.2014 -3.62384,-1.10263 v 0 l -0.0653,-0.038 -0.049,-0.057 -0.0163,-0.057 v -0.076 -0.076 l 0.049,-0.057 0.049,-0.057 h 0.0653 z m -11.42658,-16.19725 14.8219,17.26185 v 0 l -0.26118,0.30417 v 0 l -14.8219,-17.26185 v 0 z"
       id="path264" />
    <path
       id="path39-9-1"
       d="m 146.34949,103.3542 4.29839,-6.624243 7.69069,1.86039 0.43644,7.790603 -7.41406,2.94597 z"
       style="fill:#00ff00;stroke:#000000;stroke-width:0.380355px;stroke-linecap:butt;stroke-linejoin:miter;stroke-miterlimit:8;stroke-dasharray:none;stroke-opacity:1" />
    <path
       id="path59-7-6"
       d="m 26.413275,157.73547 3.89535,15.63915 h 16.33166 l -3.92421,-15.63915 z"
       style="fill:#ffaaaa;stroke:#000000;stroke-width:0.605946px;stroke-linecap:butt;stroke-linejoin:miter;stroke-miterlimit:8;stroke-dasharray:none;stroke-opacity:1" />
    <path
       style="fill:none;stroke:#000000;stroke-width:0.264583px;stroke-linecap:butt;stroke-linejoin:miter;stroke-opacity:1"
       d="m 27.028938,153.11389 0.03194,4.52484"
       id="path304" />
    <path
       style="fill:none;stroke:#000000;stroke-width:0.264583px;stroke-linecap:butt;stroke-linejoin:miter;stroke-opacity:1"
       d="m 27.060879,157.63873 15.655194,0.0967 -15.687135,-4.62158 v 0"
       id="path310" />
    <path
       id="path312"
       d="m 64.734442,165.18444 0.02488,3.52482"
       style="fill:none;stroke:#000000;stroke-width:0.206108px;stroke-linecap:butt;stroke-linejoin:miter;stroke-opacity:1" />
    <path
       id="path314"
       d="m 64.759323,168.70926 12.195298,0.0753 -12.22018,-3.60019 v 0"
       style="fill:none;stroke:#000000;stroke-width:0.206108px;stroke-linecap:butt;stroke-linejoin:miter;stroke-opacity:1" />
    <path
       style="fill:none;stroke:#000000;stroke-width:0.164546px;stroke-linecap:butt;stroke-linejoin:miter;stroke-opacity:1"
       d="m 64.002077,168.65043 0.732364,-3.46603"
       id="path316" />
    <path
       id="path318"
       d="m 107.41715,154.36143 5.84986,1.45707 v 6.10889 l -5.84986,-1.46785 z"
       style="fill:#f9f9f9;stroke:#000000;stroke-width:0.226655px;stroke-linecap:butt;stroke-linejoin:miter;stroke-miterlimit:8;stroke-dasharray:none;stroke-opacity:1" />
    <path
       style="fill:#f9f9f9;stroke:#000000;stroke-width:0.226655px;stroke-linecap:butt;stroke-linejoin:miter;stroke-miterlimit:8;stroke-dasharray:none;stroke-opacity:1"
       d="m 107.41715,160.45954 -0.10664,6.02763 5.90074,1.5811 0.0962,-6.03043 z"
       id="path320" />
    <path
       id="path328"
       d="m 113.37364,155.89974 -0.10663,6.02765 5.90074,1.5811 0.0962,-6.03045 z"
       style="fill:#f9f9f9;stroke:#000000;stroke-width:0.226655px;stroke-linecap:butt;stroke-linejoin:miter;stroke-miterlimit:8;stroke-dasharray:none;stroke-opacity:1" />
    <path
       style="fill:#f9f9f9;stroke:#000000;stroke-width:0.226655px;stroke-linecap:butt;stroke-linejoin:miter;stroke-miterlimit:8;stroke-dasharray:none;stroke-opacity:1"
       d="m 101.52683,152.78313 -0.10664,6.02765 5.90075,1.5811 0.0962,-6.03045 z"
       id="path330" />
    <path
       id="path332"
       d="m 107.52379,148.33378 -0.10664,6.02765 5.90074,1.5811 0.0962,-6.03045 z"
       style="fill:#f9f9f9;stroke:#000000;stroke-width:0.226655px;stroke-linecap:butt;stroke-linejoin:miter;stroke-miterlimit:8;stroke-dasharray:none;stroke-opacity:1" />
    <path
       id="path334"
       d="m 107.23634,161.46487 0.90097,5.96089 6.08187,0.57399 -0.91172,-5.96191 z"
       style="fill:#cccccc;stroke:#000000;stroke-width:0.226655px;stroke-linecap:butt;stroke-linejoin:miter;stroke-miterlimit:8;stroke-dasharray:none;stroke-opacity:1" />
    <path
       style="fill:#b3b3b3;fill-opacity:1;fill-rule:evenodd;stroke:#000000;stroke-width:0.257446;stroke-miterlimit:4.5;stroke-dasharray:none"
       d="m 36.252152,220.985 v 6.04755 h 6.242633 V 220.985 Z"
       id="path71" />
    <path
       id="path71-0"
       d="m 42.494785,220.985 v 6.04755 h 6.242633 V 220.985 Z"
       style="fill:#b3b3b3;fill-opacity:1;fill-rule:evenodd;stroke:#000000;stroke-width:0.257446;stroke-miterlimit:4.5;stroke-dasharray:none" />
    <path
       id="path71-07"
       d="m 54.980048,220.985 v 6.04755 h 6.242635 V 220.985 Z"
       style="fill:#b3b3b3;fill-opacity:1;fill-rule:evenodd;stroke:#000000;stroke-width:0.257446;stroke-miterlimit:4.5;stroke-dasharray:none" />
    <path
       id="path71-05"
       d="m 61.222683,220.985 v 6.04755 h 6.242634 V 220.985 Z"
       style="fill:#b3b3b3;fill-opacity:1;fill-rule:evenodd;stroke:#000000;stroke-width:0.257446;stroke-miterlimit:4.5;stroke-dasharray:none" />
    <path
       style="fill:#b3b3b3;fill-opacity:1;fill-rule:evenodd;stroke:#000000;stroke-width:0.257446;stroke-miterlimit:4.5;stroke-dasharray:none"
       d="m 48.737418,233.08009 v 6.04755 h 6.24263 v -6.04755 z"
       id="path100" />
    <path
       id="path102"
       d="m 48.737418,214.93745 v 6.04755 h 6.24263 v -6.04755 z"
       style="fill:#b3b3b3;fill-opacity:1;fill-rule:evenodd;stroke:#000000;stroke-width:0.257446;stroke-miterlimit:4.5;stroke-dasharray:none" />
    <path
       style="fill:#b3b3b3;fill-opacity:1;fill-rule:evenodd;stroke:#000000;stroke-width:0.257446;stroke-miterlimit:4.5;stroke-dasharray:none"
       d="m 48.737418,227.03255 v 6.04754 h 6.24263 v -6.04754 z"
       id="path105" />
    <path
       id="path107"
       d="m 94.210374,214.58713 8.140766,-8.91843 8.16539,8.91843 -3.12352,14.44721 H 97.309284 Z"
       style="fill:none;stroke:#000000;stroke-width:0.238916;stroke-linecap:butt;stroke-linejoin:miter;stroke-miterlimit:8;stroke-dasharray:none;stroke-opacity:1" />
    <path
       id="path109"
       d="m 96.837684,214.73518 v 3.47212 h 3.584126 v -3.47212 z"
       style="fill:#b3b3b3;fill-opacity:1;fill-rule:evenodd;stroke:#000000;stroke-width:0.0951849" />
    <path
       style="fill:#f2f2f2;fill-opacity:1;fill-rule:evenodd;stroke:#000000;stroke-width:0.0951849"
       d="m 102.22863,214.72972 v 3.47212 h 3.58411 v -3.47212 z"
       id="path113" />
    <path
       style="fill:#b3b3b3;fill-opacity:1;fill-rule:evenodd;stroke:#000000;stroke-width:0.0951849"
       d="m 104.34312,214.73659 v 3.47212 h 3.58413 v -3.47212 z"
       id="path115" />
    <path
       id="path117"
       d="m 100.43229,221.79486 v 3.47212 h 3.58413 v -3.47212 z"
       style="fill:#b3b3b3;fill-opacity:1;fill-rule:evenodd;stroke:#000000;stroke-width:0.0951849" />
    <path
       style="fill:#b3b3b3;fill-opacity:1;fill-rule:evenodd;stroke:#000000;stroke-width:0.0951849"
       d="m 100.62049,211.1507 v 3.47211 h 3.58412 v -3.47211 z"
       id="path119" />
    <path
       id="path121"
       d="m 100.43229,218.32274 v 3.47212 h 3.58413 v -3.47212 z"
       style="fill:#b3b3b3;fill-opacity:1;fill-rule:evenodd;stroke:#000000;stroke-width:0.0951849" />
    <path
       id="path55-3-7"
       d="m 195.49891,128.58327 2.01995,6.61412 h 7.06158 l 2.03635,-6.61412 z"
       style="fill:#f9f9f9;stroke:#000000;stroke-width:0.311391px;stroke-linecap:butt;stroke-linejoin:miter;stroke-miterlimit:8;stroke-dasharray:none;stroke-opacity:1" />
    <path
       style="fill:#ffffff;stroke:#000000;stroke-width:0.259656px;stroke-linecap:butt;stroke-linejoin:miter;stroke-miterlimit:8;stroke-dasharray:none;stroke-opacity:1"
       d="m 195.6603,128.58327 5.47825,-5.93172 5.47824,5.93172 z"
       id="path224-1" />
    <path
       style="fill:#b3b3b3;fill-opacity:1;fill-rule:evenodd;stroke:#000000;stroke-width:0.257446;stroke-miterlimit:4.5;stroke-dasharray:none"
       d="m 48.737418,220.985 v 6.04755 h 6.24263 V 220.985 Z"
       id="path168" />
    <path
       style="fill:none;stroke:#000000;stroke-width:0.203824;stroke-linecap:butt;stroke-linejoin:miter;stroke-miterlimit:4.5;stroke-dasharray:none;stroke-opacity:1"
       d="m 76.825537,214.58713 8.67932,-8.76704 8.705517,8.76704 -3.330127,14.20197 H 80.129444 Z"
       id="path170" />
    <path
       id="path174"
       d="m 79.119343,215.03315 v 3.95281 h 4.080328 v -3.95281 z"
       style="fill:#b3b3b3;fill-opacity:1;fill-rule:evenodd;stroke:#000000;stroke-width:0.257446;stroke-miterlimit:4.5;stroke-dasharray:none" />
    <path
       id="path176"
       d="m 87.28,215.03315 v 3.95281 h 4.080328 v -3.95281 z"
       style="fill:#b3b3b3;fill-opacity:1;fill-rule:evenodd;stroke:#000000;stroke-width:0.257446;stroke-miterlimit:4.5;stroke-dasharray:none" />
    <path
       style="fill:#b3b3b3;fill-opacity:1;fill-rule:evenodd;stroke:#000000;stroke-width:0.257446;stroke-miterlimit:4.5;stroke-dasharray:none"
       d="m 83.199671,222.93878 v 3.95281 H 87.28 v -3.95281 z"
       id="path180" />
    <path
       id="path182"
       d="m 83.199671,211.08033 v 3.95282 H 87.28 v -3.95282 z"
       style="fill:#b3b3b3;fill-opacity:1;fill-rule:evenodd;stroke:#000000;stroke-width:0.257446;stroke-miterlimit:4.5;stroke-dasharray:none" />
    <path
       style="fill:#b3b3b3;fill-opacity:1;fill-rule:evenodd;stroke:#000000;stroke-width:0.257446;stroke-miterlimit:4.5;stroke-dasharray:none"
       d="m 83.199671,218.98596 v 3.95282 H 87.28 v -3.95282 z"
       id="path184" />
    <path
       style="fill:#cccccc;fill-opacity:1;fill-rule:evenodd;stroke:#000000;stroke-width:0.257446;stroke-miterlimit:4.5;stroke-dasharray:none"
       d="m 83.199671,215.03315 v 3.95281 H 87.28 v -3.95281 z"
       id="path186" />
    <path
       id="path190"
       d="m 124.49089,217.46951 -0.94823,3.30392 3.01646,1.74155 0.9429,-3.30701 z"
       style="fill:#f9f9f9;stroke:#000000;stroke-width:0.243734;stroke-linecap:butt;stroke-linejoin:miter;stroke-miterlimit:8;stroke-dasharray:none;stroke-opacity:1" />
    <path
       style="fill:#f9f9f9;stroke:#000000;stroke-width:0.243734;stroke-linecap:butt;stroke-linejoin:miter;stroke-miterlimit:8;stroke-dasharray:none;stroke-opacity:1"
       d="m 128.44427,215.83723 -0.94823,3.30395 3.01645,1.74155 0.94291,-3.30703 z"
       id="path192" />
    <path
       id="path194"
       d="m 122.37966,212.37255 -0.94824,3.30395 3.01647,1.74154 0.9429,-3.30703 z"
       style="fill:#f9f9f9;stroke:#000000;stroke-width:0.243734;stroke-linecap:butt;stroke-linejoin:miter;stroke-miterlimit:8;stroke-dasharray:none;stroke-opacity:1" />
    <path
       style="fill:#f9f9f9;stroke:#000000;stroke-width:0.243734;stroke-linecap:butt;stroke-linejoin:miter;stroke-miterlimit:8;stroke-dasharray:none;stroke-opacity:1"
       d="m 126.33904,210.80709 -0.94825,3.30392 3.01646,1.74157 0.9429,-3.30703 z"
       id="path196" />
    <path
       style="fill:#cccccc;stroke:#000000;stroke-width:0.243734;stroke-linecap:butt;stroke-linejoin:miter;stroke-miterlimit:8;stroke-dasharray:none;stroke-opacity:1"
       d="m 122.35716,224.61051 -0.38345,3.41587 3.26483,1.21363 0.37768,-3.41802 z"
       id="path198" />
    <path
       style="fill:#f9f9f9;stroke:#000000;stroke-width:0.243734;stroke-linecap:butt;stroke-linejoin:miter;stroke-miterlimit:8;stroke-dasharray:none;stroke-opacity:1"
       d="m 123.548,220.77651 -0.94824,3.30394 3.01646,1.74154 0.9429,-3.30701 z"
       id="path200" />
    <text
       id="text206"
       y="183.33652"
       x="33.003391"
       style="font-size:4.66879px;line-height:1.25;font-family:sans-serif;stroke-width:0.145899"
       xml:space="preserve"><tspan
         style="stroke-width:0.145899"
         y="183.33652"
         x="33.003391"
         id="tspan204"
         sodipodi:role="line">Diamond(SideAttached,FustionFormed)</tspan><tspan
         id="tspan208"
         style="stroke-width:0.145899"
         y="189.1725"
         x="33.003391"
         sodipodi:role="line">UnderOpen Beautyless(Ruined Rulered Embed)</tspan><tspan
         id="tspan1043"
         style="stroke-width:0.145899"
         y="195.0085"
         x="33.003391"
         sodipodi:role="line">Me-Cha-Y-Nic du Do Ruassa //软傻 美铠腻扣 毒 </tspan><tspan
         id="tspan1045"
         style="stroke-width:0.145899"
         y="200.96207"
         x="33.003391"
         sodipodi:role="line">Mei-Kan-Ni-Kou</tspan></text>
    <path
       style="fill:#f9f9f9;stroke:#000000;stroke-width:0.141051;stroke-linecap:butt;stroke-linejoin:miter;stroke-miterlimit:8;stroke-dasharray:none;stroke-opacity:1"
       d="m 99.695363,255.42453 3.573157,-11.61571 h 12.49144 l 3.60218,11.61571 z"
       id="path1033" />
    <path
       id="path1035"
       d="m 99.695363,255.42453 3.573147,15.60612 h 12.49145 l 3.60218,-15.60612 z"
       style="fill:#f9f9f9;stroke:#000000;stroke-width:0.141051;stroke-linecap:butt;stroke-linejoin:miter;stroke-miterlimit:8;stroke-dasharray:none;stroke-opacity:1" />
    <text
       style="line-height:1.25;font-family:sans-serif;font-size:8.46666667px;white-space:pre;shape-inside:url(#rect1039);"
       id="text1037"
       xml:space="preserve" />
    <text
       transform="scale(1.0951195,0.91314236)"
       id="text1049"
       y="274.00693"
       x="94.522125"
       style="font-size:3.76566px;line-height:1.25;font-family:sans-serif;stroke-width:0.117676"
       xml:space="preserve"><tspan
         style="stroke-width:0.117676"
         y="274.00693"
         x="94.522125"
         id="tspan1047"
         sodipodi:role="line">Venus</tspan></text>
    <text
       transform="scale(1.0951195,0.91314236)"
       xml:space="preserve"
       style="font-size:2.12571px;line-height:1.25;font-family:sans-serif;stroke-width:0.0664283"
       x="94.04937"
       y="286.72562"
       id="text1049-3"><tspan
         sodipodi:role="line"
         id="tspan1047-6"
         x="94.04937"
         y="286.72562"
         style="stroke-width:0.0664283">Airea/Shan\</tspan><tspan
         id="tspan1073"
         sodipodi:role="line"
         x="94.04937"
         y="289.38275"
         style="stroke-width:0.0664283">Gaetub</tspan></text>
    <text
       transform="scale(1.0951195,0.91314236)"
       id="text1071"
       y="281.13727"
       x="95.612976"
       style="font-size:4.42852px;line-height:1.25;font-family:sans-serif;stroke-width:0.138391"
       xml:space="preserve"><tspan
         style="stroke-width:0.138391"
         y="281.13727"
         x="95.612976"
         id="tspan1069"
         sodipodi:role="line">Oni</tspan></text>
    <path
       id="path1096"
       d="m 76.760479,244.56509 -0.0587,28.40611"
       style="fill:none;stroke:#800000;stroke-width:0.264583px;stroke-linecap:butt;stroke-linejoin:miter;stroke-opacity:1" />
    <path
       id="path1112"
       d="m 75.33392,255.36177 c -2.72455,-0.34261 -5.30361,-1.72488 -7.00845,-3.75626 -1.37011,-1.63252 -2.16899,-3.39813 -2.50389,-5.53386 -0.14659,-0.93477 -0.0982,-2.83753 0.095,-3.73952 0.30927,-1.44354 0.98904,-3.01249 1.79969,-4.1538 0.51387,-0.72347 1.73869,-1.96683 2.43488,-2.47174 1.51755,-1.1006 3.34185,-1.81966 5.15316,-2.03115 0.99353,-0.116 2.57737,-0.0484 3.48685,0.14885 2.14763,0.46575 3.97019,1.45747 5.51959,3.00339 1.43215,1.42892 2.49061,3.36156 2.912,5.31698 0.37952,1.76116 0.31867,3.67366 -0.171,5.3741 -0.54215,1.88269 -1.52089,3.4951 -2.95865,4.87419 -1.60217,1.53679 -3.42764,2.46155 -5.68868,2.88182 -0.60587,0.11262 -2.45102,0.1649 -3.0705,0.087 z m 3.09175,-0.99662 c 2.68328,-0.53152 4.97596,-2.07074 6.51473,-4.37375 0.19362,-0.28977 0.33041,-0.54772 0.30399,-0.57322 -0.0264,-0.0255 -0.91977,-0.3702 -1.98522,-0.766 -1.06545,-0.3958 -2.88605,-1.07285 -4.04577,-1.50455 -1.15972,-0.43171 -2.15321,-0.78492 -2.20774,-0.78492 -0.0836,0 -1.41558,0.50406 -4.24475,1.60638 -2.29462,0.89405 -4.22386,1.64031 -4.42114,1.71018 -0.12888,0.0456 -0.23433,0.099 -0.23433,0.1185 0,0.13385 1.10606,1.46487 1.64444,1.97889 1.58236,1.51077 3.53191,2.42644 5.77151,2.71077 0.64145,0.0814 2.20906,0.0154 2.90428,-0.12228 z m -8.71465,-5.99045 c 0.85258,-0.71498 2.43593,-2.03906 3.51856,-2.94241 1.08264,-0.90334 1.98939,-1.70329 2.01502,-1.77765 0.0256,-0.0744 0.20142,-1.0913 0.39067,-2.25986 0.18924,-1.16855 0.51275,-3.15013 0.7189,-4.40351 0.20616,-1.25337 0.37483,-2.32897 0.37483,-2.39023 0,-0.095 -0.0576,-0.11136 -0.3922,-0.11136 -1.42527,0 -3.26876,0.5079 -4.5881,1.26406 -2.83725,1.62611 -4.71773,4.42669 -5.08703,7.57603 -0.10203,0.87002 -0.0409,2.33466 0.13156,3.15408 0.1723,0.8185 0.49049,1.73823 0.85431,2.4694 0.29485,0.59259 0.37735,0.72141 0.46202,0.72141 0.0282,0 0.74888,-0.58498 1.60146,-1.29996 z m 1.58932,0.058 c 1.4907,-0.57996 3.3501,-1.30227 4.132,-1.60514 l 1.42164,-0.55066 -0.007,-0.47265 c -0.004,-0.25995 -0.0251,-0.64511 -0.0469,-0.8559 l -0.0396,-0.38326 -1.84344,1.09639 c -1.01389,0.60302 -2.82766,1.68099 -4.03058,2.39549 -2.3858,1.41711 -2.39245,1.42117 -2.33543,1.42652 0.0215,0.002 1.25885,-0.47083 2.74955,-1.05079 z m 13.85923,0.7722 c -0.0521,-0.0521 -1.59707,-1.30077 -3.43319,-2.77474 l -3.3384,-2.67995 -0.59975,0.32203 c -1.02326,0.54941 -1.09723,0.38523 0.60927,1.35226 0.81798,0.46352 2.68234,1.52418 4.14304,2.35701 1.46069,0.83283 2.66886,1.51513 2.68482,1.51621 0.016,0.001 -0.0136,-0.0407 -0.0658,-0.0928 z m 0.69534,-0.95851 c 1.27437,-3.17638 0.86157,-6.73543 -1.10273,-9.50744 -0.50626,-0.71443 -1.68185,-1.89779 -2.36877,-2.38442 -1.01225,-0.71711 -2.23333,-1.27583 -3.46315,-1.58461 -0.56006,-0.14062 -1.97316,-0.33196 -2.02983,-0.27485 -0.0141,0.0142 0.056,0.51794 0.15584,1.1194 0.0998,0.60147 0.43487,2.64019 0.74459,4.5305 0.51084,3.11787 0.57615,3.44789 0.7036,3.55506 0.12268,0.10316 4.78471,3.85585 6.3234,5.09001 l 0.55886,0.44825 0.10951,-0.17295 c 0.0602,-0.0951 0.22613,-0.46365 0.36868,-0.81895 z m -9.00586,-8.6482 c -0.003,-2.65503 -0.0162,-4.79921 -0.0299,-4.76484 -0.0137,0.0344 -0.34736,2.0307 -0.74136,4.43629 -0.65843,4.02015 -0.7078,4.37887 -0.61058,4.43664 0.58727,0.34897 1.2457,0.70758 1.3087,0.71278 0.0619,0.005 0.0771,-0.99483 0.0732,-4.82087 z"
       style="fill:#000000;stroke-width:0.0624895" />
    <text
       style="line-height:1.25;font-family:sans-serif;font-size:8.46666667px;white-space:pre;shape-inside:url(#rect1116);"
       id="text1114"
       xml:space="preserve" />
    <path
       id="path1120"
       d="m 125.39079,214.11101 -0.8999,3.3585"
       style="fill:none;stroke:#000000;stroke-width:0.208008px;stroke-linecap:butt;stroke-linejoin:miter;stroke-opacity:1" />
    <path
       id="path1122"
       d="m 126.01799,214.53254 v 3.70756"
       style="fill:none;stroke:#ff0000;stroke-width:0.0846066px;stroke-linecap:butt;stroke-linejoin:miter;stroke-opacity:1" />
    <path
       style="fill:none;stroke:#000000;stroke-width:0.2398;stroke-linecap:butt;stroke-linejoin:miter;stroke-miterlimit:8;stroke-dasharray:none;stroke-opacity:1"
       d="m 117.46242,215.47342 8.1709,-8.95143 8.19559,8.95143 -3.13508,14.50065 H 120.5728 Z"
       id="path1124" />
    <path
       id="path1126"
       d="m 125.63332,206.52199 -0.39478,22.71802"
       style="fill:none;stroke:#800000;stroke-width:0.0890146;stroke-linecap:butt;stroke-linejoin:miter;stroke-miterlimit:4;stroke-dasharray:none;stroke-opacity:1" />
    <path
       id="path1128"
       d="m 109.52886,243.80615 v 27.25804"
       style="fill:#808080;stroke:#b3b3b3;stroke-width:0.264583px;stroke-linecap:butt;stroke-linejoin:miter;stroke-opacity:1" />
    <path
       style="fill:#b3b3b3;stroke:#000000;stroke-width:0.605945px;stroke-linecap:butt;stroke-linejoin:miter;stroke-miterlimit:8;stroke-dasharray:none;stroke-opacity:1"
       d="m 140.43908,214.97278 3.89536,-15.63916 h 16.33166 l -3.92422,15.63916 z"
       id="path1210" />
    <path
       id="path1212"
       d="M 142.67798,206.59906 H 158.5372"
       style="fill:none;stroke:#000000;stroke-width:0.264583px;stroke-linecap:butt;stroke-linejoin:miter;stroke-opacity:1" />
    <path
       id="path1214"
       d="m 150.65632,199.17325 v 15.85922 l -0.36044,0.18022"
       style="fill:none;stroke:#000000;stroke-width:0.264583px;stroke-linecap:butt;stroke-linejoin:miter;stroke-opacity:1" />
    <path
       id="path1216"
       d="m 170.20506,218.41781 -6.09607,-14.91962 13.17712,-9.64813 6.07279,14.93667 z"
       style="fill:#b3b3b3;stroke:#000000;stroke-width:0.605945px;stroke-linecap:butt;stroke-linejoin:miter;stroke-miterlimit:8;stroke-dasharray:none;stroke-opacity:1" />
    <path
       style="fill:none;stroke:#000000;stroke-width:0.264583px;stroke-linecap:butt;stroke-linejoin:miter;stroke-opacity:1"
       d="m 165.87091,205.57959 h 15.85922"
       id="path1218" />
    <path
       style="fill:none;stroke:#000000;stroke-width:0.264583px;stroke-linecap:butt;stroke-linejoin:miter;stroke-opacity:1"
       d="M 173.84925,198.15378 V 214.013 l -0.36044,0.18022"
       id="path1220" />
    <path
       style="fill:#b3b3b3;stroke:#000000;stroke-width:0.605945px;stroke-linecap:butt;stroke-linejoin:miter;stroke-miterlimit:8;stroke-dasharray:none;stroke-opacity:1"
       d="M 60.576791,109.62465 64.47215,93.985492 h 16.33166 l -3.924214,15.639158 z"
       id="path1940" />
    <path
       style="fill:none;stroke:#000000;stroke-width:0.264583px;stroke-linecap:butt;stroke-linejoin:miter;stroke-opacity:1"
       d="M 64.47215,93.985492 76.879595,109.62465"
       id="path1942" />
    <path
       style="fill:#cccccc;fill-opacity:1;fill-rule:nonzero;stroke:#666666;stroke-width:0.26499999;stroke-miterlimit:4;stroke-dasharray:1.05999995,0.26499999;stroke-dashoffset:0"
       d="m 67.949592,18.988946 2.490667,-1.459375 v 0.272417 l -2.490667,-1.439917 v 0 l -0.03892,-0.03892 -0.03892,-0.05837 v -0.03892 -0.05837 l 0.03892,-0.03892 0.03892,-0.03892 0.03892,-0.01946 h 0.05838 l 0.05837,0.01946 v 0 l 2.724166,1.576125 -2.724166,1.595583 v 0 l -0.05837,0.01946 h -0.05838 l -0.03892,-0.01946 -0.03892,-0.03892 -0.03892,-0.03892 v -0.05837 -0.05837 l 0.03892,-0.03892 z M 52.849926,17.510113 h 17.668166 v 0 0.311333 0 H 52.849926 v 0 z"
       id="path1944" />
    <path
       style="fill:none;fill-opacity:1;fill-rule:nonzero;stroke:#000000;stroke-width:0.26499999;stroke-miterlimit:4;stroke-dasharray:1.05999995,0.26499999;stroke-dashoffset:0"
       d="m 73.709264,16.342608 -2.490667,1.459375 v -0.272417 l 2.490667,1.459375 v 0 l 0.03892,0.03892 0.01946,0.03892 0.01946,0.05837 -0.01946,0.03892 -0.01946,0.05837 -0.03892,0.03892 -0.05837,0.01946 h -0.05838 l -0.03892,-0.01946 v 0 l -2.724166,-1.595585 2.724166,-1.595583 v 0 l 0.03892,-0.01946 h 0.05838 l 0.05837,0.01946 0.03892,0.03892 0.01946,0.05837 0.01946,0.03892 -0.01946,0.05837 -0.01946,0.03892 z m 11.733375,2.646333 2.490666,-1.459375 v 0.272417 l -2.490666,-1.459375 v 0 l -0.03892,-0.03892 -0.01946,-0.03892 -0.01946,-0.05837 0.01946,-0.03892 0.01946,-0.05838 0.03892,-0.03892 0.05838,-0.01946 h 0.05837 l 0.03892,0.01946 v 0 l 2.724167,1.595583 -2.724167,1.595583 v 0 l -0.03892,0.01946 h -0.05837 l -0.05838,-0.01946 -0.03892,-0.03892 -0.01946,-0.05837 -0.01946,-0.03892 0.01946,-0.05837 0.01946,-0.03892 z M 71.140764,17.510108 h 16.870375 v 0 0.311333 0 H 71.140764 v 0 z"
       id="path1946" />
    <path
       style="fill:#00ff66;stroke:#000000;stroke-width:0.224053px;stroke-linecap:butt;stroke-linejoin:miter;stroke-miterlimit:8;stroke-dasharray:none;stroke-opacity:1"
       d="m 236.77358,139.80179 3.53149,-2.89135 3.54216,2.89135 -1.35498,4.68376 h -4.37436 z"
       id="path39-7" />
    <path
       style="fill:#00ff66;stroke:#000000;stroke-width:0.224053px;stroke-linecap:butt;stroke-linejoin:miter;stroke-miterlimit:8;stroke-dasharray:none;stroke-opacity:1"
       d="m 236.93178,150.07353 1.64305,-3.2861 h 3.80889 l 1.63238,3.2861 -1.63238,3.2861 h -3.80889 z"
       id="path43-8" />
    <path
       style="fill:#00ff66;stroke:#000000;stroke-width:0.224053px;stroke-linecap:butt;stroke-linejoin:miter;stroke-miterlimit:8;stroke-dasharray:none;stroke-opacity:1"
       d="m 243.7387,160.17542 -3.54217,2.90201 -3.53149,-2.90201 1.34432,-4.68377 h 4.37436 z"
       id="path63-6" />
    <path
       id="path39-9-0"
       d="m 250.74888,146.51592 2.89134,3.53149 -2.89134,3.54216 -4.68377,-1.35498 v -4.37436 z"
       style="fill:#00ff66;stroke:#000000;stroke-width:0.224053px;stroke-linecap:butt;stroke-linejoin:miter;stroke-miterlimit:8;stroke-dasharray:none;stroke-opacity:1" />
    <path
       id="path63-3-7"
       d="m 230.83553,153.73914 -2.90201,-3.54216 2.90201,-3.5315 4.68376,1.34432 v 4.37436 z"
       style="fill:#00ff66;stroke:#000000;stroke-width:0.224053px;stroke-linecap:butt;stroke-linejoin:miter;stroke-miterlimit:8;stroke-dasharray:none;stroke-opacity:1" />
    <path
       id="path1064"
       d="m 245.15602,139.94928 4.54164,0.45265 0.4602,4.54918 -4.27005,2.3538 -3.09313,-3.09313 z"
       style="fill:#00ff66;stroke:#000000;stroke-width:0.224053px;stroke-linecap:butt;stroke-linejoin:miter;stroke-miterlimit:8;stroke-dasharray:none;stroke-opacity:1" />
    <path
       id="path1066"
       d="m 237.44089,148.05909 3.06597,-2.02432 3.2986,1.90444 -0.22936,3.66204 -3.05674,2.02966 -3.29859,-1.90444 z"
       style="fill:#00ff66;stroke:#000000;stroke-width:0.224053px;stroke-linecap:butt;stroke-linejoin:miter;stroke-miterlimit:8;stroke-dasharray:none;stroke-opacity:1" />
    <path
       id="path1068"
       d="m 235.67478,159.28069 -4.55672,-0.45265 -0.44512,-4.54918 4.2625,-2.36134 3.09314,3.09313 z"
       style="fill:#00ff66;stroke:#000000;stroke-width:0.224053px;stroke-linecap:butt;stroke-linejoin:miter;stroke-miterlimit:8;stroke-dasharray:none;stroke-opacity:1" />
    <path
       style="fill:#00ff66;stroke:#000000;stroke-width:0.224053px;stroke-linecap:butt;stroke-linejoin:miter;stroke-miterlimit:8;stroke-dasharray:none;stroke-opacity:1"
       d="m 250.29045,154.57891 -0.45266,4.54163 -4.54916,0.4602 -2.35382,-4.27004 3.09314,-3.09314 z"
       id="path1070" />
    <path
       style="fill:#00ff66;stroke:#000000;stroke-width:0.224053px;stroke-linecap:butt;stroke-linejoin:miter;stroke-miterlimit:8;stroke-dasharray:none;stroke-opacity:1"
       d="m 231.10199,145.60564 0.45266,-4.55672 4.54917,-0.44511 2.36134,4.2625 -3.09313,3.09313 z"
       id="path1072" />
    <text
       xml:space="preserve"
       style="font-size:3.52777px;line-height:1.25;font-family:sans-serif;stroke-width:0.264583"
       x="164.08427"
       y="88.460693"
       id="text147"><tspan
         sodipodi:role="line"
         id="tspan145"
         x="164.08427"
         y="88.460693"
         style="stroke-width:0.264583">正五边形 视觉偏差 </tspan><tspan
         sodipodi:role="line"
         x="164.08427"
         y="92.959251"
         style="stroke-width:0.264583"
         id="tspan149">  视觉</tspan><tspan
         sodipodi:role="line"
         x="164.08427"
         y="97.457817"
         style="stroke-width:0.264583"
         id="tspan157">  视力偏差</tspan><tspan
         sodipodi:role="line"
         x="164.08427"
         y="101.95638"
         style="stroke-width:0.264583"
         id="tspan153">  时差</tspan><tspan
         sodipodi:role="line"
         x="164.08427"
         y="106.45494"
         style="stroke-width:0.264583"
         id="tspan155">  察觉</tspan><tspan
         sodipodi:role="line"
         x="164.08427"
         y="110.9535"
         style="stroke-width:0.264583"
         id="tspan159">?钝角组合梯形是正五边形</tspan><tspan
         sodipodi:role="line"
         x="164.08427"
         y="115.45206"
         style="stroke-width:0.264583"
         id="tspan151">亚子角</tspan></text>
    <path
       id="path3141"
       d="m 91.713623,57.183714 6.111232,10.615559 6.111225,-10.615559 z"
       style="fill:#b3b3b3;stroke:#000000;stroke-width:0.366879px;stroke-linecap:butt;stroke-linejoin:miter;stroke-miterlimit:8;stroke-dasharray:none;stroke-opacity:1" />
    <path
       id="path3143"
       d="m 91.713623,57.183714 6.111232,-10.61556 6.111225,10.61556 z"
       style="fill:#b3b3b3;stroke:#000000;stroke-width:0.366879px;stroke-linecap:butt;stroke-linejoin:miter;stroke-miterlimit:8;stroke-dasharray:none;stroke-opacity:1" />
  </g>
</svg>
